<?xml version="1.0" standalone="no"?>
<!DOCTYPE svg PUBLIC "-//W3C//DTD SVG 1.1//EN" "http://www.w3.org/Graphics/SVG/1.1/DTD/svg11.dtd" >
<svg xmlns="http://www.w3.org/2000/svg">
<metadata></metadata>
<defs>
<font id="inikaregular" horiz-adv-x="1218" >
<font-face units-per-em="2048" ascent="1638" descent="-410" />
<missing-glyph horiz-adv-x="532" />
<glyph horiz-adv-x="0" />
<glyph unicode="&#xd;" horiz-adv-x="681" />
<glyph unicode=" "  horiz-adv-x="532" />
<glyph unicode="&#x09;" horiz-adv-x="532" />
<glyph unicode="&#xa0;" horiz-adv-x="532" />
<glyph unicode="!" horiz-adv-x="595" d="M186 88q0 59 13 113q57 4 107 4t95 -10q4 -29 4.5 -87.5t-12.5 -115.5q-49 -6 -106.5 -6t-96.5 18q-4 25 -4 84zM195 1475q61 4 102 4t86 -11l-29 -1146q-12 -2 -47 -2.5t-63 4.5z" />
<glyph unicode="&#x22;" horiz-adv-x="831" d="M154 1499q45 10 95 10t107 -4q13 -57 13 -129q0 -229 -50 -327q-25 -8 -59 -9l-22 2q4 27 4 82q0 174 -88 375zM512 1499q45 10 95 10t108 -4q12 -57 12 -129q0 -229 -49 -327q-25 -8 -60 -9l-22 2q4 27 4 82q0 174 -88 375z" />
<glyph unicode="#" horiz-adv-x="1366" d="M53 467l4 65q106 10 201 11h94l35 397l-272 4q-4 18 -4 55l4 66q106 10 200 10h82l33 357q55 6 98 6t66 -2l-45 -363q106 0 319 -4l33 363q31 6 86 6t78 -2l-47 -369l270 -2q4 -31 4 -66.5t-4 -54.5q-106 -10 -201 -10h-86l-49 -399l279 -3q4 -31 4 -66.5t-4 -53.5 q-106 -10 -201 -11h-94l-49 -401q-14 -4 -47 -4l-64 4l35 401q-209 4 -346 5l-49 -406q-14 -4 -47 -4l-64 4l35 408l-283 4q-4 18 -4 55zM481 541l342 -4l35 399l-326 2z" />
<glyph unicode="$" horiz-adv-x="1030" d="M123 86q0 137 27 262q37 6 135 6l24 -213q98 -43 196.5 -43t163 46t64.5 118t-58.5 120t-142 85t-167.5 79t-142.5 109.5t-58.5 155.5q0 137 81 220t216 97v258q18 6 70.5 6.5t64.5 -3.5l-10 -261q162 -14 282 -75q2 -23 2 -118t-18 -161q-43 -18 -125 -18l-72 229 q-49 23 -130 23t-131 -45t-50 -108.5t59.5 -113t143.5 -87.5t168 -80t143.5 -111.5t59.5 -157.5q0 -141 -95.5 -226t-247.5 -102v-237q-12 -4 -43.5 -4t-52.5 4l-8 235q-207 10 -348 111z" />
<glyph unicode="%" horiz-adv-x="1744" d="M82 1126q0 189 87 298.5t260 109.5t263 -106.5t90 -290t-90 -299t-262 -115.5q-348 0 -348 403zM244 1163q0 -82 1 -112.5t11 -80.5t28.5 -76t55.5 -46.5t90 -20.5t90 20.5t55.5 46.5t26.5 73q12 59 12 134t-1 102.5t-11 76.5t-27.5 76.5t-54.5 50.5t-90 23t-90 -18.5 t-55.5 -42t-28.5 -71.5q-12 -53 -12 -135zM287 35l1013 1472q73 -29 134 -90l-1069 -1442q-25 10 -78 60zM932 377q0 188 87 297.5t260 109.5t263 -106.5t90 -289.5t-90 -299t-262 -116q-348 0 -348 404zM1094 414q0 -82 1 -113t11 -81t28.5 -75.5t55.5 -46t90 -20.5 t90 20.5t55.5 46t28.5 72.5q10 59 10 134t-1 102.5t-11 77t-27.5 77t-54.5 50t-90 22.5t-90 -18.5t-55.5 -42t-28.5 -70.5q-12 -53 -12 -135z" />
<glyph unicode="&#x26;" horiz-adv-x="1490" d="M82 406q0 139 87 243.5t202 155.5q-76 84 -110 155.5t-34 172.5q0 141 107.5 233t294.5 92q100 0 193 -43t147 -94l-35 -203q-23 -8 -57 -8l-39 2l-52 211q-59 16 -157.5 16t-147.5 -61t-49 -122.5t25.5 -115t53.5 -85t95 -99.5q63 -66 430 -469q78 137 78 414 q0 59 -4 96l-172 16q0 57 35 123h471l6 -71q-94 -33 -188 -50q-2 -119 -40 -311t-102 -291l264 -290q-33 -59 -81 -60l-267 230q-76 -86 -206 -152t-230 -66q-236 0 -377 111t-141 320zM274 413q0 -87 37 -150.5t92 -94.5q104 -61 205 -62q211 0 353 168l-472 431 q-94 -43 -154.5 -124t-60.5 -168z" />
<glyph unicode="'" horiz-adv-x="419" d="M102 1499q45 10 95.5 10t107.5 -4q12 -57 12 -129q0 -229 -49 -327q-25 -8 -59 -9l-23 2q4 27 4 82q0 174 -88 375z" />
<glyph unicode="(" horiz-adv-x="667" d="M143 500.5q0 267.5 128 592t266 500.5q41 -10 100 -55q-117 -276 -166 -404t-94 -311.5t-45 -320.5t45 -322.5t94 -313.5t166 -403q-59 -45 -100 -55q-137 176 -265.5 500.5t-128.5 592z" />
<glyph unicode=")" horiz-adv-x="667" d="M31 -537q117 274 166 402.5t94 314t45 322.5t-45 320.5t-94.5 311.5t-165.5 404q59 45 100 55q137 -176 265 -500.5t128 -592t-128 -592t-265 -500.5q-41 10 -100 55z" />
<glyph unicode="*" horiz-adv-x="880" d="M72 1135q0 14 32 39q82 14 263 14q-188 115 -217 143q25 88 69 133q4 2 8 2l43 -12q49 -59 144 -221q4 221 14 262q47 12 86 12t64 -6q10 -6 18 -49q-29 -76 -121 -238q205 113 234 121q63 -66 79 -127q0 -14 -32 -39q-115 -16 -269 -16q197 -115 224 -141 q-25 -88 -70 -133q-4 -2 -8 -2l-43 12q-43 53 -146 219q-4 -217 -12 -260q-47 -12 -86 -12t-63 6q-10 6 -19 49q25 63 117 233q-190 -106 -229 -116q-63 66 -80 127z" />
<glyph unicode="+" horiz-adv-x="1077" d="M51 518l6 66q131 24 248 24l150 -2l10 434q29 6 57 7l68 -7q25 -131 24.5 -239.5t-2.5 -198.5l408 -8q4 -20 4 -59l-4 -62q-131 -25 -232.5 -24.5t-179.5 2.5l-8 -451q-20 -4 -59 -4l-66 4q-25 131 -24.5 242.5t2.5 210.5l-396 10q-6 29 -6 55z" />
<glyph unicode="," horiz-adv-x="430" d="M51 -227q23 68 129 190q25 29 29 33q-72 0 -98 4q-12 41 -12.5 107.5t3.5 95.5q45 10 95.5 10t107.5 -4q12 -57 12 -147.5t-70.5 -195t-129.5 -140.5q-35 14 -66 47z" />
<glyph unicode="-" horiz-adv-x="669" d="M94 504l4 74q106 10 201 10l274 -10q4 -33 5 -56l-5 -71q-106 -10 -200 -11l-275 11q-4 14 -4 53z" />
<glyph unicode="." horiz-adv-x="425" d="M104.5 115.5q-0.5 58.5 4.5 87.5q45 10 95 10t107 -4q12 -53 12 -103.5t-4 -99.5q-53 -12 -103 -12t-99 6q-12 57 -12.5 115.5z" />
<glyph unicode="/" horiz-adv-x="833" d="M61 -4l533 1438q55 6 84 6t94 -10l-561 -1430q-43 -8 -80 -8t-70 4z" />
<glyph unicode="0" horiz-adv-x="1079" d="M90 551q0 582 467 582q244 0 359.5 -151t115.5 -418t-115.5 -429t-361.5 -162t-355.5 144.5t-109.5 433.5zM268 582q0 -123 8.5 -194t35 -144.5t88 -109.5t148.5 -36t142 27t85 63.5t44 102.5q25 102 25 262q0 453 -287 453q-78 0 -134 -29t-85 -70t-45 -104 q-25 -98 -25 -221z" />
<glyph unicode="1" horiz-adv-x="737" d="M51 975l400 135q61 -45 65 -68l-24 -903l184 -16q0 -57 -35 -123h-539l-4 70q70 20 244 51q-4 135 -10 404.5t-10 404.5q-166 -76 -232 -82q-35 57 -39 127z" />
<glyph unicode="2" horiz-adv-x="927" d="M92 77q0 34 2 42q424 403 457 439t66.5 107.5t33.5 144.5t-56 134.5t-171 61.5q-63 0 -109 -13l-49 -252q-20 -2 -44.5 -2t-74.5 9q-33 88 -34 243q51 49 146 93t181 44q180 0 290 -91t110 -199q0 -139 -58.5 -241.5t-193.5 -217.5l-275 -234l6 -24l359 2q10 139 24 192 q14 2 35 2q37 0 72 -10q25 -123 25 -307h-717q-25 43 -25 77z" />
<glyph unicode="3" horiz-adv-x="970" d="M59 -227q4 78 25 108q6 0 39 -8t57 -12q70 -12 121 -12.5t72.5 2t67.5 10.5t86 28.5t79 49.5q86 68 86 195.5t-78.5 191t-214.5 63.5q-33 0 -120 -8q-8 10 -8.5 48t5.5 73l91 12q111 14 190.5 91t79.5 188q0 219 -250 219q-41 0 -94 -15l-49 -254q-80 0 -119 7 q-35 102 -35 243q43 49 142.5 93t173.5 44q182 0 299.5 -91t117.5 -218q0 -221 -262 -334q125 0 222.5 -77.5t97.5 -223t-86 -255t-200 -160t-250 -50.5t-286 52z" />
<glyph unicode="4" horiz-adv-x="1089" d="M30.5 146.5q0.5 37.5 2.5 39.5l545 920h270l-21 -903q76 0 224 -4q0 -86 -21 -125h-205l-14 -342q-31 -6 -61.5 -6t-57.5 8l-16 340h-621q-25 35 -24.5 72.5zM205 199q311 4 469 4l-21 741z" />
<glyph unicode="5" horiz-adv-x="923" d="M59 -227q0 84 27 108q90 -33 250 -33q170 0 262 74q39 33 67.5 95.5t28.5 146.5q0 143 -69.5 224t-198.5 81q-98 0 -160.5 -15.5t-68.5 -15.5q-43 25 -68 60l-23 608h697q0 -178 -25 -307q-35 -8 -106 -8q-12 49 -25 192h-356l-6 -408q61 21 149 21q203 0 325 -113.5 t122 -311.5t-158 -324t-353.5 -126t-310.5 52z" />
<glyph unicode="6" horiz-adv-x="1144" d="M104 680q0 176 45.5 307t120 220t172.5 153q186 123 408 123q25 -25 24 -109q-274 -20 -416.5 -172.5t-164.5 -437.5q57 53 161.5 92t174.5 39q205 0 322.5 -115.5t117.5 -344t-130 -345.5t-339 -117q-203 0 -342 158q-72 80 -113 226.5t-41 322.5zM299 577.5 q0 -59.5 12.5 -135t43 -158.5t96 -134.5t155.5 -51.5q143 0 209 96.5t66 254t-54.5 238.5t-208 81t-317.5 -115q-2 -16 -2 -75.5z" />
<glyph unicode="7" horiz-adv-x="950" d="M45 1012q0 49 6 96l766 -2q41 -41 41 -111q-133 -408 -252 -744.5t-188 -535.5q-78 10 -111 39l367 1229h-422l-51 -250q-80 0 -119 8q-37 119 -37 271z" />
<glyph unicode="8" horiz-adv-x="1081" d="M92 385q0 240 275 426l-7 4q-129 61 -182 138t-53 233.5t113.5 253t313.5 96.5t311.5 -99.5t111.5 -254t-67.5 -239.5t-200.5 -161q288 -174 288 -385q0 -180 -110.5 -301t-335.5 -121q-162 0 -299 86q-70 43 -114 127t-44 197zM281 407.5q0 -110.5 26.5 -171t69.5 -89.5 q82 -53 158 -53q131 0 186 29l18 8q68 131 68 254t-72.5 200t-259.5 173q-96 -72 -145 -156t-49 -194.5zM313 1188q0 -221 222 -318q12 -4 67 -32q184 114 184 352q0 221 -237 221q-106 0 -184 -33q-51 -92 -52 -190z" />
<glyph unicode="9" horiz-adv-x="1071" d="M68 686.5q0 192.5 121.5 319.5t342 127t335 -143.5t114.5 -399.5q0 -377 -176 -619q-88 -121 -235.5 -187.5t-344.5 -66.5q-14 18 -14 60l2 30q266 20 389 147.5t164 381.5q-49 -41 -124 -66.5t-130 -25.5q-203 0 -323.5 125t-120.5 317.5zM254 664q0 -145 80 -222 t215 -77q39 0 120 34.5t117 59.5q12 70 12.5 150.5t-12 143t-39 125t-82 99.5t-133.5 37q-279 0 -278 -350z" />
<glyph unicode=":" horiz-adv-x="487" d="M135 113.5q0 58.5 4 87.5q45 10 95.5 10t107.5 -4q12 -53 12 -114.5t-4 -88.5q-53 -12 -103 -12t-100 6q-12 57 -12 115.5zM135 809.5q0 58.5 4 87.5q45 10 95.5 10t107.5 -4q12 -53 12 -103.5t-4 -99.5q-53 -12 -103 -12t-100 6q-12 57 -12 115.5z" />
<glyph unicode=";" horiz-adv-x="481" d="M82 -229q23 68 127 188q27 31 31 35q-72 0 -99 4q-12 41 -12 107.5t4 95.5q45 10 95.5 10t107.5 -4q12 -57 12 -147.5t-70.5 -195t-130.5 -140.5q-35 14 -65 47zM127 809.5q0 58.5 4 87.5q45 10 95 10t108 -4q12 -53 12 -114.5t-4 -88.5q-53 -12 -103.5 -12t-99.5 6 q-12 57 -12 115.5z" />
<glyph unicode="&#x3c;" horiz-adv-x="903" d="M94 529.5q0 31.5 6 43.5q20 20 195.5 188.5t214.5 205.5q72 63 199 149l82 -90q-389 -377 -445.5 -428t-81.5 -70q66 -53 70 -57l457 -438l-82 -90q-111 74 -175.5 130t-241 220t-192.5 180q-6 25 -6 56.5z" />
<glyph unicode="=" horiz-adv-x="1220" d="M143 340l7 66q131 25 247 24l674 -14q4 -20 4 -60l-4 -61q-131 -25 -246 -25l-675 15q-6 27 -7 55zM143 698l7 66q131 25 247 24l674 -14q4 -20 4 -59l-4 -62q-131 -25 -246 -24l-675 14q-6 29 -7 55z" />
<glyph unicode="&#x3e;" horiz-adv-x="954" d="M143 33q389 377 425 409.5t102 85.5q-25 18 -70 60l-457 438l82 90q113 -72 175.5 -129t238 -225.5t195.5 -188.5q6 -12 6 -43.5t-6 -56.5q-16 -16 -192.5 -180t-217.5 -199q-90 -78 -199 -151z" />
<glyph unicode="?" horiz-adv-x="987" d="M143 1374q158 123 369 123q352 0 352 -344q0 -86 -47 -178t-104 -160q-168 -197 -199 -328q-8 -31 -8 -153q-37 -6 -88 -6q-31 72 -47 170q12 84 65 177t108.5 161.5t100.5 161t45 181.5t-57.5 144t-141 55t-145.5 -24l-47 -211l-119 4q-29 80 -37 227zM354.5 113.5 q-0.5 58.5 3.5 87.5q45 10 93.5 10t109.5 -4q12 -53 12 -114.5t-4 -88.5q-53 -12 -103 -12t-99 6q-12 57 -12.5 115.5z" />
<glyph unicode="@" horiz-adv-x="1873" d="M143 535q0 827 815 827q375 0 584 -203t209 -547q0 -575 -592 -575q-31 63 -35 133q-39 -33 -133 -84t-155 -51q-121 0 -199 62.5t-78 197.5q0 240 199 278q111 20 346 21l-2 59q-4 127 -49 181.5t-154 54.5q-43 0 -102 -23l-43 -182q-68 0 -105 6q-29 78 -31 215 q35 18 158 55t158 37q176 0 255 -80t79 -264l-8 -471q76 -4 139 -28q37 14 79 51t72.5 83t55 131t24.5 189q0 291 -179 463t-493 172q-698 0 -698 -704q0 -360 192.5 -556t503.5 -196q272 0 469 115q37 -57 37 -99q-195 -131 -504 -131q-381 0 -598 228.5t-217 634.5z M719 311q-1 -151 155 -151q35 0 89 30q82 49 155 103l-10 209q-246 -29 -270 -35q-119 -29 -119 -156z" />
<glyph unicode="A" horiz-adv-x="1513" d="M10 72q80 29 170 45l398 1161q-182 20 -256 49l8 64q37 12 200.5 27.5t298 15.5t207.5 -13q2 -8 2 -19t-11 -52t-17 -54q-16 -16 -92 -24l391 -1133l194 -16q0 -57 -35 -123h-471l-6 72q47 25 137 43l-104 293h-571l-97 -269l166 -16q0 -57 -35 -123h-471zM489 539h498 l-125 325l-108 402q-12 2 -35 2l-111 -418z" />
<glyph unicode="B" horiz-adv-x="1290" d="M61 1356q6 76 11 78h514q274 0 372 -48q47 -23 95 -59q94 -74 94 -244q0 -86 -30 -154.5t-77 -105.5q-86 -68 -153 -75q119 -15 210 -111t91 -269t-136.5 -270.5t-398.5 -97.5h-561l-6 72q86 35 176 49q-12 791 -20 1186q-70 12 -181 49zM428 139h217q340 0 340 254 q0 147 -78.5 206.5t-242.5 59.5h-228q-4 -176 -8 -520zM438 799h201q180 0 240.5 68.5t60.5 217.5q0 205 -375 205l-123 -2q-4 -188 -4 -489z" />
<glyph unicode="C" horiz-adv-x="1210" d="M41 729q0 358 146.5 544.5t467.5 186.5q258 0 459 -143q0 -115 -29 -291q-29 -6 -118 -6l-62 254q-140 26 -227 26h-6q-162 0 -285 -45l-39 -14q-12 -20 -30.5 -60t-48 -167t-29.5 -260q0 -289 95 -459t304 -170q150 0 225 31l60 30l43 246l118 -6q31 -211 31 -342 q-43 -33 -185.5 -72t-287.5 -39q-602 0 -602 756z" />
<glyph unicode="D" horiz-adv-x="1366" d="M61 1356q4 70 11 78h516q213 0 337 -39t216 -144q143 -157 143 -501q0 -463 -211 -629q-88 -70 -190.5 -95.5t-268.5 -25.5h-520l-6 72q8 6 84 26t90 21q-12 799 -20 1188q-92 12 -181 49zM406 139h215q281 0 372.5 126t91.5 468q0 276 -103 416.5t-347 140.5h-209 q-8 -377 -20 -1151z" />
<glyph unicode="E" d="M61 1356l11 78h987q4 -27 4 -82q0 -113 -29 -244q-45 -10 -119 -10l-49 194h-420l-10 -493h324l16 147q57 0 123 -35v-389l-72 -6q-31 88 -41 148h-350q-4 -178 -8 -527h469l49 193l119 -8q29 -117 29 -206t-4 -116h-996l-6 72q90 33 174 47q-12 799 -20 1188 q-45 4 -181 49z" />
<glyph unicode="F" horiz-adv-x="1138" d="M61 1356l11 78h987q4 -27 4 -82q0 -111 -29 -246q-45 -8 -119 -8l-49 194h-420q-4 -172 -8 -516h324l16 148q57 0 123 -35v-389l-72 -6q-31 88 -41 147h-350l-10 -504l172 -14q0 -57 -35 -123h-471l-6 72q90 33 174 47q-12 799 -20 1188q-45 4 -181 49z" />
<glyph unicode="G" horiz-adv-x="1341" d="M41 720q0 370 142.5 555t444.5 185t509 -151q0 -104 -29 -248q-45 -8 -119 -8l-45 211q-117 39 -287 39q-113 0 -309 -62q-12 -23 -30.5 -62.5t-48 -167.5t-29.5 -257q0 -629 407 -629q215 0 332 78q8 258 10 387l-198 49l6 72h471q35 -66 35 -123q-80 -12 -173 -17 q12 -344 13 -475q-51 -35 -204 -79t-296 -44q-274 0 -438 188.5t-164 558.5z" />
<glyph unicode="H" horiz-adv-x="1523" d="M61 1362l7 72h512q35 -66 34 -123q-102 -8 -163 -8q-7 -156 -15 -482l668 -2q-4 250 -12 494q-76 14 -183 49l6 72h512q35 -66 35 -123q-102 -8 -164 -8l-22 -1164l172 -16q0 -57 -35 -123h-471l-6 72q96 33 188 49l-16 569h-676q-4 -369 -4 -551l172 -16q0 -57 -35 -123 h-471l-6 72q96 33 188 49q-20 795 -32 1192q-76 14 -183 49z" />
<glyph unicode="I" horiz-adv-x="778" d="M113 1362l6 72h512q35 -66 35 -123q-105 -8 -166 -8l-21 -1164l172 -16q0 -57 -35 -123h-471l-6 72q94 33 187 49q-4 133 -13.5 548.5t-15.5 643.5q-82 16 -184 49z" />
<glyph unicode="J" horiz-adv-x="950" d="M10 66q2 156 33 335q33 14 121 15l41 -266q55 -20 145 -20q1 -1 2 -1q88 0 140 52q53 52 53 188.5t-4 290t-12.5 349t-12.5 304.5q-61 8 -180 49l6 72h512q35 -66 35 -123q-25 -8 -164 -8q-4 -182 -9 -518t-7 -443q-4 -174 -83 -271.5t-231 -97.5q-111 0 -227.5 31 t-157.5 62z" />
<glyph unicode="K" horiz-adv-x="1417" d="M61 1362l7 72h512q35 -66 34 -123q-102 -8 -163 -8q-4 -213 -7.5 -385.5t-5.5 -241.5l490 618l-164 17q0 57 35 123h520l6 -91q-94 -33 -184 -49l-404 -485l471 -670l172 -16q0 -57 -34 -123h-256l-465 670l-191 -230l-6 -301l172 -16q0 -57 -35 -123h-471l-6 72 q96 33 188 49q-20 795 -32 1192q-76 14 -183 49z" />
<glyph unicode="L" horiz-adv-x="1212" d="M141 1358l11 76h493q35 -57 35 -121q-111 -4 -160 -6q-4 -393 -7 -716t-5 -454h448l50 195q102 0 118 -10q6 -13 17.5 -95t11.5 -138t-6 -89h-973l-6 72q96 35 174 47q-12 807 -20 1190q-53 8 -181 49z" />
<glyph unicode="M" horiz-adv-x="1990" d="M31 72q90 33 180 49l180 1188q-125 18 -198 43l8 82h477l326 -1123h8l254 1123h456q35 -66 35 -127q-132 -15 -198 -15l215 -1153l186 -18q0 -55 -35 -121h-471l-6 72q61 27 151 43l-219 1149l-270 -1166h-203l-372 1170l-166 -1129l174 -16q0 -57 -35 -123h-471z" />
<glyph unicode="N" horiz-adv-x="1607" d="M61 1362l7 72h405l748 -1194l-35 1073q-76 14 -182 49l6 72h512q35 -66 34 -123q-102 -8 -163 -8l-21 -1303h-198l-728 1180l-20 -1041l172 -16q0 -57 -35 -123h-471l-6 72q111 37 188 49q-4 133 -13 548.5t-15 643.5q-78 12 -185 49z" />
<glyph unicode="O" horiz-adv-x="1325" d="M41 708.5q0 360.5 148.5 556t483.5 195.5t473 -179t138 -541.5t-148.5 -563.5t-473 -201t-473 186.5t-148.5 547zM337 292q95 -159 333 -159q414 0 414 581v2q0 582 -414 582q-195 0 -318 -57q-111 -218 -111 -502q1 -288 96 -447z" />
<glyph unicode="P" horiz-adv-x="1177" d="M63 1356l11 78h551q260 0 386 -85t126 -300t-125 -341t-404 -126h-172l-6 -445l160 -14q0 -57 -35 -123h-461l-6 70q86 33 176 49q-12 799 -20 1188q-55 10 -181 49zM438 713l150 2q176 2 268 89t92 230.5t-90 199.5t-289 56q-37 0 -125 -2q0 -2 -6 -575z" />
<glyph unicode="Q" horiz-adv-x="1308" d="M41 708.5q0 360.5 148.5 556t483.5 195.5t473 -179t138 -541.5t-148.5 -564.5t-473 -202t-473 187.5t-148.5 548zM233 -180q221 110 340 110h2q113 0 322 -82q84 -35 156.5 -52t253.5 -21q0 -88 -76 -187q-109 6 -238 54q-35 12 -143.5 55t-175 61.5t-116.5 18.5 t-157.5 -25.5t-117.5 -25.5q-45 37 -50 94zM337 292q95 -159 333 -159q414 0 414 581v2q-1 582 -414 582q-195 0 -318 -57q-111 -218 -111 -502q1 -288 96 -447z" />
<glyph unicode="R" horiz-adv-x="1343" d="M61 1356q0 27 11 78h460q375 0 488 -93q111 -88 110 -276q0 -317 -348 -412l351 -518l170 -14q0 -55 -35 -121h-252l-430 643h-152l-6 -506l170 -14q0 -57 -35 -123h-471l-6 72q86 31 176 47q-12 778 -20 1188q-57 8 -181 49zM436 774l156 2q152 2 242 62q90 59 90 224 q0 169 -138 208q-66 20 -174 20h-170z" />
<glyph unicode="S" horiz-adv-x="1173" d="M92 109q4 137 31 317q45 6 119 6l43 -246q45 -18 136 -33.5t165 -15.5q305 0 305 248q0 121 -150 205q-68 39 -148.5 73.5t-162.5 75.5t-148.5 88t-108.5 119t-42 162q0 147 120 250.5t328.5 103.5t440.5 -127q0 -117 -29 -293q-45 -6 -119 -6l-61 238q-25 12 -97.5 24.5 t-127.5 12.5q-119 0 -184.5 -50.5t-65.5 -139.5t76.5 -159.5t186.5 -120.5t219.5 -103.5t186 -138.5t76.5 -198q0 -205 -137 -316.5t-358 -111.5q-121 0 -261.5 38t-232.5 98z" />
<glyph unicode="T" horiz-adv-x="1271" d="M41 1360q0 25 4 74h1180q4 -27 4 -82q0 -111 -29 -242q-45 -12 -119 -12l-51 209h-285q-10 -344 -22 -1168l172 -16q0 -57 -35 -123h-471l-6 72q119 43 188 49q-20 791 -32 1186h-299l-50 -209l-118 8q-31 125 -31 254z" />
<glyph unicode="U" horiz-adv-x="1544" d="M49 1362l6 72h514q35 -66 35 -123q-59 -4 -170 -8q-4 -238 -4 -713q0 -256 95.5 -356.5t271.5 -100.5q76 0 132 16.5t111 63.5q111 94 111 381q0 2 -18 709q-160 47 -185 59l6 72h508q33 -84 33 -121q-129 0 -166 -2q-4 -164 -9 -464t-7 -394q-6 -233 -143 -355.5 t-375 -122.5q-117 0 -203 18.5t-166 67.5q-166 98 -171 391t-22 861q-82 16 -184 49z" />
<glyph unicode="V" horiz-adv-x="1495" d="M10 1362l6 72h533q35 -66 35 -123q-100 -6 -185 -13l363 -1083h10q45 154 342 1098q-82 12 -192 49l6 72h514q35 -66 35 -123q-95 -7 -179 -13l-421 -1298h-213l-469 1313q-82 16 -185 49z" />
<glyph unicode="W" horiz-adv-x="2205" d="M10 1362l6 72h533q35 -66 35 -123q-100 -6 -185 -13l260 -1083h9q66 283 177 682t148 535h221l330 -1217h8l271 1098q-82 16 -185 49l7 72h512q35 -66 34 -123q-113 -6 -196 -13l-357 -1298h-192l-352 1202l-320 -1202h-213l-366 1313q-82 16 -185 49z" />
<glyph unicode="X" horiz-adv-x="1478" d="M20 72q94 33 185 49l432 618l-404 557l-174 13q0 57 35 123h551l6 -72q-104 -39 -194 -55l303 -447l297 440l-174 13q0 57 35 123h526l6 -72q-94 -33 -184 -49l-422 -574l442 -604l174 -12q0 -57 -35 -123h-536l-6 72q92 33 182 49l-334 491l-317 -477l174 -12 q0 -57 -35 -123h-526z" />
<glyph unicode="Y" horiz-adv-x="1386" d="M10 1362l6 72h533q35 -66 35 -123q-100 -6 -185 -13l306 -620h22l305 635q-82 12 -192 49l6 72h495q35 -66 35 -123q-90 -6 -174 -13l-407 -786l-9 -373l172 -16q0 -61 -32 -123h-473l-7 72q125 43 189 49q-2 127 -10 391l-430 801q-82 16 -185 49z" />
<glyph unicode="Z" horiz-adv-x="1220" d="M92 125l797 1169h-539l-53 -235q-72 0 -107 14q-34 150 -34 287q0 25 4 74h932q37 -47 47 -125l-799 -1172h598l49 234q66 0 107 -13q33 -143 33 -236q0 -95 -5 -122h-983q-37 47 -47 125z" />
<glyph unicode="[" horiz-adv-x="753" d="M174 1452q2 33 18.5 79t22.5 52q70 0 248 -13.5t211 -23.5q6 -49 6 -106q-27 -8 -307 -41q-12 -1106 -13 -1659l322 -19q0 -63 -8 -106q-33 -10 -198 -23.5t-232 -13.5q-8 8 -23.5 53t-17.5 78q-20 1171 -29 1743z" />
<glyph unicode="\" horiz-adv-x="833" d="M61 1430q66 10 91.5 10t87.5 -6l532 -1438q-33 -4 -69.5 -4t-79.5 8z" />
<glyph unicode="]" horiz-adv-x="651" d="M82 -279q229 19 321 19q0 553 -12 1659q-281 33 -307 41q0 57 6 106q33 10 211 23.5t248 13.5q6 -6 22.5 -52t18.5 -79q-8 -571 -29 -1743q-2 -33 -17.5 -78t-23.5 -53q-68 0 -232.5 13.5t-197.5 23.5q-8 43 -8 106z" />
<glyph unicode="^" horiz-adv-x="1048" d="M123 811q322 613 334 623q8 4 67.5 4t77.5 -6l324 -621q-10 -12 -45 -25.5t-50 -13.5q-82 104 -145 221t-162 314q-158 -317 -211 -397.5t-96 -137.5q-14 0 -49 13.5t-45 25.5z" />
<glyph unicode="_" horiz-adv-x="1030" d="M0 -414l6 66q131 25 248 24l768 -14q4 -20 4 -59l-4 -62q-131 -25 -246 -24l-770 14q-6 27 -6 55z" />
<glyph unicode="`" horiz-adv-x="1705" d="M401 1382q2 29 23.5 60t62.5 65l287 -233q-47 -55 -82 -84q-180 86 -291 192z" />
<glyph unicode="a" horiz-adv-x="1103" d="M84 268q0 322 393 332q229 6 232 6l-2 70q-4 141 -53.5 203.5t-176.5 62.5q-53 0 -115 -24l-49 -205q-10 -2 -34 -2l-84 6q-33 88 -35 244q39 20 178 62t178 42q209 0 295 -92t86 -303l-10 -529q88 -6 176 -27l-4 -73q-33 -16 -118 -35.5t-167 -19.5q-37 74 -41 141 q-233 -154 -327 -154q-145 0 -233.5 78t-88.5 217zM272 287q1 -174 179 -173q59 0 274 132l-10 256q-139 -12 -233.5 -22.5t-152 -54.5t-57.5 -138z" />
<glyph unicode="b" horiz-adv-x="1161" d="M14 1384l9 107q104 31 303 31q63 0 90 -4q0 -61 -27 -164q0 -47 -2 -133q-4 -168 -4 -285q254 129 330 129q190 0 282 -148.5t92 -385t-103 -396.5t-300 -160q-80 0 -175 45.5t-163 106.5q-8 -76 -33 -139q-8 -2 -30.5 -2t-65.5 6l-22 1366q-102 6 -181 26zM371 252 q51 -51 137 -94t149 -43q242 0 242 397q0 152 -35 239t-80 123.5t-108 36.5q-133 0 -293 -86q-4 -188 -7 -349t-5 -224z" />
<glyph unicode="c" horiz-adv-x="966" d="M74 508q0 557 495 557q80 0 166 -23.5t135 -52.5q-6 -190 -39 -270q-37 -10 -59 -10h-35q-10 0 -24 2l-51 225q-68 6 -78 6q-147 0 -234.5 -90t-87.5 -303t66.5 -323.5t257.5 -110.5q90 0 282 86q39 -53 41 -95q-104 -61 -204.5 -96t-143.5 -35q-246 0 -366.5 138.5 t-120.5 394.5z" />
<glyph unicode="d" horiz-adv-x="1157" d="M74 508.5q0 234.5 99 395.5t294 161q151 0 311 -117l-6 410q-113 6 -180 24l8 107q104 31 303 31q63 0 90 -4q0 -37 -11 -97.5t-15 -66.5l-19 -1211q84 -4 178 -28l-4 -72q-141 -66 -250 -66q-23 0 -34 2q-16 31 -41 142q-236 -133 -330 -144q-197 0 -295 149.5t-98 384z M262 532q0 -154 49 -266q25 -61 73 -98t111.5 -37t148.5 28.5t147 65.5l-13 584q-55 47 -135 82t-141 35q-240 0 -240 -394z" />
<glyph unicode="e" horiz-adv-x="1048" d="M82 516q0 256 122 402.5t365 146.5q188 0 287.5 -135t99.5 -363q-16 -29 -26 -39l-660 11q2 -207 73 -315.5t251 -108.5q90 0 283 86q39 -53 41 -95q-104 -61 -205 -96t-144 -35q-238 0 -362.5 142.5t-124.5 398.5zM274 645q162 2 496 10q0 136 -49 210.5t-164 74.5 t-205 -43q-61 -123 -78 -252z" />
<glyph unicode="f" horiz-adv-x="753" d="M41 72q94 33 172 49v778h-158l-6 72q74 29 164 45v84q0 231 86 338q35 41 98.5 68.5t147.5 27.5q164 0 311 -72q0 -127 -25 -254q-22 -6 -73 -6l-33 2h-8l-64 201q-45 8 -80 8q-100 0 -140 -78t-40 -272v-25h31q141 0 217 -16q2 0 8 -2q-2 -59 -35 -121h-233v-760h31 q80 0 141 -8t65 -12q0 -53 -34 -119h-537z" />
<glyph unicode="g" horiz-adv-x="1183" d="M84 -193q0 23 72.5 118t95.5 112q-18 12 -71.5 70.5t-59.5 80.5q51 94 162 185q-164 98 -164 323q0 180 114.5 274.5t286.5 94.5t266 -55q159 32 313 32h9q39 0 39 -47q0 -82 -31 -112l-235 39q74 -94 73 -226q0 -205 -120.5 -294t-296.5 -89q-55 0 -131 15 q-31 -63 -78 -138q36 -65 286 -65l183 4q282 0 282 -231q0 -111 -93 -204t-222 -140.5t-240.5 -47.5t-208 32t-164 103.5t-67.5 165.5zM270 -211q0 -80 76 -119t175.5 -39t200.5 33t152 84q20 58 21 119q0 59 -47 96t-121 37q-293 0 -358 6q-55 -88 -77 -148.5t-22 -68.5z M303 696q0 -125 61.5 -192.5t178.5 -67.5q227 0 227 253t-233.5 253t-233.5 -246z" />
<glyph unicode="h" horiz-adv-x="1263" d="M41 1384l8 107q104 31 311 31q63 0 91 -4q0 -37 -11.5 -95.5t-15.5 -68.5q0 -45 -4 -186.5t-4 -219.5q88 47 175 82t109 35q197 0 285 -97.5t88 -295.5q0 -57 -16 -533l172 -16q0 -57 -35 -123h-471l-6 72q94 33 184 49q-12 537 -21.5 597t-30 105t-61 63.5t-108.5 18.5 q-139 0 -266 -65l-13 -701l172 -16q0 -57 -34 -123h-471l-7 72q94 33 185 49l-25 1239q-113 6 -180 24z" />
<glyph unicode="i" horiz-adv-x="630" d="M61 913l9 107q174 31 270 31t123 -4q0 -49 -12.5 -108.5t-14.5 -57.5l-18 -742l172 -16q0 -57 -35 -123h-471l-6 72q94 33 184 49q-12 512 -20 768q-119 0 -181 24zM228 1344q0 6 -1 13q0 49 4 75q45 10 95.5 10t107.5 -4q12 -53 12 -103.5t-4 -99.5q-53 -12 -103 -12 t-99 6q-12 57 -12 115z" />
<glyph unicode="j" horiz-adv-x="583" d="M-201 -418q10 186 39 273q45 8 77 8t42 -2l51 -223q31 -10 90 -11q178 0 178 293q0 172 -7 515t-9 456q-113 6 -180 24l8 107q104 31 303 31q63 0 90 -4q0 -49 -12 -108.5t-14 -57.5q-6 -303 -15 -924q-4 -233 -76.5 -343t-273.5 -110q-66 0 -161 27t-130 49zM246 1344.5 q0 58.5 4 87.5q45 10 95 10t108 -4q12 -53 12 -103.5t-4 -99.5q-53 -12 -103.5 -12t-99.5 6q-12 57 -12 115.5z" />
<glyph unicode="k" horiz-adv-x="1210" d="M39 1397l8 106q104 31 303 31q63 0 90 -4q0 -63 -26 -164q-12 -541 -13 -817l330 352l-164 17q0 57 35 122h520l6 -90q-47 -18 -172 -47l-280 -254l346 -510l172 -16q0 -57 -35 -123h-280l-320 545l-160 -146q-4 -172 -4 -260l172 -16q0 -57 -35 -123h-471l-6 72 q94 33 185 49q-12 827 -21 1251q-113 6 -180 25z" />
<glyph unicode="l" horiz-adv-x="604" d="M39 1384l8 107q104 31 303 31q63 0 90 -4q0 -72 -26 -164q-18 -1208 -19 -1215l172 -16q0 -57 -35 -123h-471l-6 72q94 33 185 49l-21 1239q-113 6 -180 24z" />
<glyph unicode="m" horiz-adv-x="1896" d="M57 915l9 107q111 31 321 31q29 -51 37 -107q90 47 178 83t111 36q227 0 317 -139q94 51 195.5 95t122.5 44q186 0 279 -91t93 -298q0 -61 -16 -537l172 -16q0 -57 -35 -123h-471l-6 72q94 33 184 49q-8 324 -14 489.5t-47 229.5q-41 66 -164 66h-2q-122 0 -254 -70 q8 -66 8 -152t-16 -545l172 -16q0 -57 -35 -123h-471l-6 72q94 33 184 49q-12 545 -21.5 606t-30 103t-63.5 58.5t-130 16.5t-228 -65q-12 -467 -16 -701l172 -16q0 -57 -35 -123h-471l-6 72q94 33 184 49q-2 147 -10 416.5t-10 353.5q-113 6 -181 24z" />
<glyph unicode="n" horiz-adv-x="1261" d="M57 915l9 107q111 31 321 31q25 -37 37 -107q88 47 177 83t112 36q197 0 284.5 -97.5t87.5 -295.5q0 -57 -16 -533l172 -16q0 -57 -35 -123h-471l-6 72q94 33 184 49q-12 537 -21 597t-29.5 105t-61.5 63.5t-109 18.5q-135 0 -262 -65q-12 -467 -16 -701l172 -16 q0 -57 -35 -123h-471l-6 72q94 33 184 49q-12 520 -20 770q-113 6 -181 24z" />
<glyph unicode="o" horiz-adv-x="1101" d="M74 512q0 260 118.5 406.5t366.5 146.5t358.5 -134t110.5 -396.5t-117.5 -412t-357.5 -149.5t-359.5 139.5t-119.5 399.5zM262 530q0 -201 53 -309q61 -123 232.5 -123t232 107.5t60.5 306.5q0 315 -140 395q-57 33 -160.5 33t-195.5 -43q-82 -158 -82 -367z" />
<glyph unicode="p" horiz-adv-x="1185" d="M31 915l8 107q119 31 332 31q18 -33 35 -121q262 133 331 133q190 0 282.5 -148.5t92.5 -385t-103.5 -396.5t-299.5 -160q-74 0 -161 37t-153 92l-10 -438l178 -14q0 -57 -35 -123h-475l-6 72q94 31 184 47q-12 836 -20 1243q-92 2 -180 24zM397 250q51 -51 136 -93 t149 -42q242 0 242 397q0 152 -35 239t-80.5 123.5t-108.5 36.5q-127 0 -294 -90q-4 -381 -9 -571z" />
<glyph unicode="q" horiz-adv-x="1177" d="M74 508.5q0 234.5 99 395.5t294 161q154 0 317 -119q23 53 54 107q80 0 174 -24.5t131 -43.5q4 -23 4 -72q-98 -27 -172 -30l-23 -1213l172 -16q0 -57 -34 -123h-486l-6 66q109 39 199 55q-4 307 -9 461q-233 -127 -321 -138q-197 0 -295 149.5t-98 384zM262 532 q0 -154 49 -266q25 -61 73 -98t110.5 -37t147.5 27.5t146 64.5q-2 199 -10 586q-55 47 -135 82t-141 35q-240 0 -240 -394z" />
<glyph unicode="r" horiz-adv-x="919" d="M57 915l9 107q109 31 321 31q33 -51 41 -131q236 143 281 143t104 -17.5t88 -37.5q0 -205 -39 -334q-29 -8 -66.5 -8t-52.5 2l-41 223q-10 10 -44.5 10t-103.5 -24.5t-124 -57.5q-12 -455 -16 -682l172 -16q0 -57 -35 -123h-471l-6 72q94 33 184 49q-12 520 -20 770 q-113 6 -181 24z" />
<glyph unicode="s" horiz-adv-x="925" d="M68 80q0 137 24 244q47 8 127 8l25 -201q72 -31 175 -31t162.5 39t59.5 106.5t-55.5 112.5t-135 80t-159.5 74t-135.5 102.5t-55.5 147.5q0 141 94.5 222t261.5 80.5t314 -75.5q2 -20 2 -109t-18 -153q-49 -16 -117 -16l-68 209q-44 23 -118 23l-3 -1q-76 0 -121.5 -40 t-45.5 -100.5t56 -105.5t136 -80.5t160 -75.5t136 -104.5t56 -148.5q0 -147 -113.5 -230.5t-279.5 -83.5q-90 0 -192.5 30t-171.5 77z" />
<glyph unicode="t" horiz-adv-x="712" d="M45 971q20 14 119 53l168 262q41 -4 63 -20l-2 -226q154 0 252 -20q0 -55 -35 -121h-221q-4 -246 -8 -745q115 -6 229 -41l-2 -72q-29 -18 -146.5 -43t-193.5 -25q-10 16 -26.5 70.5t-16.5 83.5l-16 772h-158z" />
<glyph unicode="u" d="M20 909l9 107q174 31 270 31t123 -5q0 -49 -12.5 -108.5t-14.5 -56.5l2 -443q0 -156 39 -227.5t166 -71.5q59 0 133 25.5t121 62.5q-8 436 -14 662q-127 0 -189 24l9 107q174 31 273 31t126 -5q0 -37 -11.5 -98t-15.5 -67l-24 -732q109 -6 176 -24l-4 -105 q-88 -29 -171 -29q-1 1 -3 1q-84 0 -103 2q-39 78 -45 143q-100 -76 -185 -117t-112 -41q-180 0 -261 97.5t-81 285.5q0 2 19 525q-119 0 -220 26z" />
<glyph unicode="v" horiz-adv-x="1208" d="M-20 918q0 57 34 122h496l6 -71q-66 -29 -145 -45l184 -559l47 -181h25l51 183l190 557l-172 45l6 71h502q35 -66 35 -122q-84 -11 -168 -15l-399 -903h-146l-374 901z" />
<glyph unicode="w" horiz-adv-x="1759" d="M-20 918q0 57 34 122h471l7 -71q-66 -29 -146 -45l146 -559l36 -181h21l41 183l207 673q25 2 34 2l142 -4l219 -673l45 -181h18l33 183l172 557l-172 45l6 71h461q35 -66 35 -122q-84 -10 -168 -15l-281 -903h-202l-262 805h-9l-233 -805h-203l-280 901z" />
<glyph unicode="x" horiz-adv-x="1122" d="M18 82q80 41 172 57l283 400l-235 362l-213 17q0 57 34 122h471l7 -71q-55 -39 -105 -51l150 -242l254 364h251q12 -16 13 -39l-6 -43q-78 -29 -168 -36l-271 -379l285 -404l164 -16q0 -57 -35 -123h-471l-6 72q67 29 151 45l-184 286l-293 -403h-233q-14 37 -15 82z" />
<glyph unicode="y" horiz-adv-x="1136" d="M-20 918q0 57 34 122h471l7 -71q-66 -29 -146 -45l178 -559l47 -181h21l246 740l-172 45l6 71h461q35 -66 34 -122q-84 -10 -168 -15q-53 -156 -158.5 -465t-166 -479t-119.5 -276.5t-117.5 -142.5t-130.5 -36q-127 0 -237 50l-37 18q14 233 18 256q16 6 119 6l70 -209 q18 -6 47 -6q78 0 152.5 149.5t84.5 231.5h-49l-323 901z" />
<glyph unicode="z" horiz-adv-x="993" d="M90 111l588 815h-350l-49 -213q-31 -2 -37 -2l-82 6q-29 119 -29 208t4 115h727q12 -31 12 -114l-561 -803h387l50 215l118 -10q29 -119 29 -210t-4 -118h-774q-25 37 -29 111z" />
<glyph unicode="{" horiz-adv-x="829" d="M63 623l11 57q39 33 143.5 128t110.5 105l-72 447q2 18 20.5 62t32.5 55q315 102 365 106q27 -51 43 -98q-27 -23 -260 -142l8 -452q0 -125 -289 -244v-63q289 -119 289 -244l-8 -453q233 -119 260 -141q-16 -47 -43 -98q-49 4 -365 106q-14 10 -32.5 54.5t-20.5 62.5 l72 446q-6 10 -110.5 105.5t-143.5 128.5q-10 23 -11 72z" />
<glyph unicode="|" horiz-adv-x="610" d="M205 1534q25 6 102.5 6t98.5 -4l-23 -1978q-14 -6 -73.5 -6.5t-80.5 6.5q-23 1907 -24 1976z" />
<glyph unicode="}" horiz-adv-x="808" d="M59 -254q27 22 260 141l-8 453q0 125 289 244v63q-289 119 -289 244l8 452q-233 119 -260 142q16 47 43 98q49 -4 365 -106q14 -10 32.5 -54.5t20.5 -62.5l-71 -447q6 -10 110.5 -105t142.5 -128q10 -29 11 -53q0 -51 -11 -76q-39 -33 -143 -128t-110 -106l71 -446 q-2 -18 -20.5 -62.5t-32.5 -54.5q-315 -102 -365 -106q-27 51 -43 98z" />
<glyph unicode="~" horiz-adv-x="1157" d="M102 532q25 37 124.5 103.5t144.5 66.5l436 -147q45 25 213 76l35 -60q-25 -37 -124.5 -103.5t-142.5 -66.5l-438 148q-45 -25 -213 -76z" />
<glyph unicode="&#xa1;" horiz-adv-x="595" d="M186 875.5q0 58.5 13 115.5q49 6 105 6t97 -18q4 -25 4.5 -84t-12.5 -113q-57 -4 -107 -4t-96 10q-4 29 -4 87.5zM209 -485l29 1147q12 2 46.5 2t63.5 -5l49 -1151q-61 -4 -102 -4t-86 11z" />
<glyph unicode="&#xa2;" horiz-adv-x="1067" d="M102.5 546.5q-0.5 534.5 429.5 581.5v258q18 6 68.5 6.5t63.5 -3.5q-4 -172 -5 -259q166 -12 281 -77q-6 -197 -41 -289q-47 -10 -127 -10l-53 247q-74 6 -84 7q-156 0 -248 -98.5t-92 -309.5q0 -231 61 -354q74 -143 283 -144q92 0 299 93q39 -53 43 -101 q-156 -97 -334 -117l-2 -237q-12 -4 -44 -4t-52 4q0 147 -4 237q-442 35 -442.5 569.5z" />
<glyph unicode="&#xa3;" horiz-adv-x="1077" d="M125 129q8 18 70 78q166 160 165 254q0 68 -81 235l-148 6q-6 27 -6 50l6 49q39 6 90 12q-59 133 -59 240q0 182 91 293.5t255 111.5q201 0 366 -137q0 -133 -34 -242q-45 -10 -119 -10l-47 254q-43 14 -136.5 14t-145.5 -79.5t-52 -184t74 -248.5l393 -14q4 -20 4 -53 l-4 -45q-141 -25 -256 -25h-66q57 -106 57.5 -181t-23 -140.5t-42 -96t-65.5 -87t-52 -60.5h447q10 141 24 194q66 0 107 -12q25 -156 25 -305h-813q-25 29 -25 129z" />
<glyph unicode="&#xa4;" horiz-adv-x="1222" d="M53 1137q29 51 113 100q30 -20 186 -180q104 82 267 82t264 -76q160 160 182 174q80 -45 113 -100l-21 -47q-63 -31 -192 -121q55 -92 55 -244t-78 -260q178 -119 217 -137q20 -33 21 -47q-25 -43 -113 -101q-35 23 -209 201q-98 -70 -236.5 -70t-236.5 58 q-174 -174 -197 -189q-80 45 -112 101l20 47q72 33 193 121q-82 104 -82 258.5t63 257.5q-141 96 -196 125q-20 33 -21 47zM393.5 724q-0.5 -134 56.5 -212t168 -78q215 0 216 285q0 150 -44.5 223.5t-155 73.5t-177.5 -33q-63 -125 -63.5 -259z" />
<glyph unicode="&#xa5;" horiz-adv-x="1406" d="M20 1362l7 72h532q35 -66 35 -123q-100 -6 -184 -13l305 -620h22l305 635q-82 12 -192 49l6 72h496q35 -66 34 -123q-90 -6 -174 -13l-344 -663l215 -4q2 -16 2 -49l-2 -54q-106 -18 -198 -18h-80v-104q209 -6 293 -7q2 -16 2 -49l-2 -53q-106 -18 -199 -18h-100v-140 l170 -16q0 -61 -33 -123h-473l-6 72q125 43 188 49v160l-280 6q-4 33 -5 47l5 57q92 18 161.5 18.5t110.5 -1.5v104l-287 6q-4 33 -4 47l4 58q106 18 199 18h16l-360 672q-82 16 -185 49z" />
<glyph unicode="&#xa6;" horiz-adv-x="610" d="M205 1534q25 6 102.5 6t98.5 -4q-4 -500 -9 -754l-182 -2zM221 262h170q-4 -238 -8 -704q-16 -6 -75 -6t-79 6z" />
<glyph unicode="&#xa7;" horiz-adv-x="1044" d="M143 558q0 97 70 201.5t174 158.5q-96 59 -149.5 120.5t-53.5 147.5q0 141 94.5 222t261.5 81t314 -76q2 -20 2 -108t-18 -154q-41 -16 -117 -16l-68 208q-45 23 -121.5 23t-121.5 -40t-45 -100.5t55 -110.5t134 -91t158 -87t134 -114.5t55 -166t-69.5 -202 t-174.5 -159.5q96 -57 149.5 -118.5t53.5 -147.5q0 -141 -94 -222t-261 -81t-315 75q-2 20 -2 108.5t19 153.5q41 16 117 17l67 -209q45 -23 122 -23t122 40t45 100.5t-55.5 111t-134 91t-157.5 87t-134.5 115t-55.5 165.5zM319 635q0 -92 59.5 -152.5t174.5 -128.5 q70 21 121 77t51 148.5t-60.5 153t-175.5 125.5q-70 -18 -120 -74.5t-50 -148.5z" />
<glyph unicode="&#xa8;" horiz-adv-x="1705" d="M426 1312q0 38 4 87q31 6 84 6t78 -2q8 -45 8 -93.5t-2 -68.5q-41 -8 -87 -8t-75 4q-10 37 -10 75zM764 1312q0 38 4 87q31 6 84 6t78 -2q8 -45 8 -93.5t-2 -68.5q-41 -8 -87 -8t-75 4q-10 37 -10 75z" />
<glyph unicode="&#xa9;" horiz-adv-x="1705" d="M39 753.5q0 202.5 64.5 356.5t177.5 244q225 180 563 180t565 -191q111 -92 175.5 -243.5t64.5 -350t-64.5 -353t-177.5 -245t-254 -135.5t-309 -45t-309.5 45t-254 135.5t-177 245t-64.5 357zM225 745q0 -287 159 -473t455 -186t460.5 188.5t164.5 490.5t-154.5 473 t-465.5 171q-166 0 -289 -49q-330 -130 -330 -615zM453 751.5q0 231.5 103 349.5t306 118q76 0 147.5 -22.5t104.5 -45.5l33 -23q0 -74 -17 -180q-29 -4 -73 -4l-39 158q-68 14 -133 14q-115 0 -213 -37q-68 -113 -68 -301q0 -381 248 -381q109 0 178 37l27 154l73 -4 q18 -139 19 -222q-27 -20 -115 -43.5t-178 -23.5q-182 0 -292.5 112.5t-110.5 344z" />
<glyph unicode="&#xaa;" horiz-adv-x="765" d="M45 913q0 209 274 222q106 4 162 4l-2 49q-4 98 -36.5 142t-123.5 44q-35 0 -79 -16l-35 -146l-84 5q-23 61 -23 169q27 14 123 44t125 30q147 0 207.5 -65.5t60.5 -206.5t-8 -375q43 -2 123 -18l-2 -52q-72 -39 -199 -38q-29 53 -28 98q-167 -107 -230 -107 q-102 0 -163.5 54.5t-61.5 162.5zM176 916q0 -121 125 -121q41 0 193 92l-9 180l-153 -14q-156 -16 -156 -137z" />
<glyph unicode="&#xab;" horiz-adv-x="980" d="M113 529.5q0 19.5 2 25.5q127 176 165.5 220t90.5 97q29 -8 98 -69q-162 -238 -195 -275q23 -27 56 -69l139 -205q-57 -66 -98 -70q-96 94 -162 187l-92 133q-4 6 -4 25.5zM481 529.5q0 19.5 2 25.5q127 176 166 220t90 97q29 -8 99 -69q-162 -238 -195 -275 q23 -27 55 -69l140 -205q-57 -66 -99 -70q-96 94 -161 187l-93 133q-4 6 -4 25.5z" />
<glyph unicode="&#xac;" horiz-adv-x="1060" d="M72 545l6 67q131 25 202.5 25t146.5 -2t163 -4q242 -6 368 -10v-410q-29 -6 -57 -6l-67 6l-29 264h-119l-608 12q-6 29 -6 58z" />
<glyph unicode="&#xad;" horiz-adv-x="790" d="M154 504l4 74q106 10 200 10l275 -10q4 -33 4 -56l-4 -71q-106 -10 -201 -11l-274 11q-4 14 -4 53z" />
<glyph unicode="&#xae;" horiz-adv-x="1085" d="M115 1105q0 216 133 322.5t327.5 106.5t329.5 -110.5t135 -322.5t-135 -329t-327.5 -117t-327.5 117t-135 333zM238 1102q0 -158 87 -261.5t249.5 -103.5t254 104.5t91.5 267.5t-89.5 250t-252.5 87q-340 0 -340 -344zM352 1321l2 27h189q109 0 162 -25t53 -100 q0 -106 -119 -140l119 -176l57 -4q0 -23 -12 -43h-107l-145 219h-51l-2 -172l57 -4q0 -18 -10 -43h-183l-2 27q29 8 60 14q0 221 -6 393zM502 1135h51q55 0 84 15t29 69q0 72 -105 71q-30 0 -57 -2z" />
<glyph unicode="&#xaf;" horiz-adv-x="608" d="M84 1362l4 72q106 10 201 10l248 -10q4 -33 4 -54l-4 -71q-106 -10 -201 -11l-248 11q-4 29 -4 53z" />
<glyph unicode="&#xb0;" horiz-adv-x="905" d="M195 1309q0 110 63.5 167.5t170 57.5t167.5 -59.5t61 -176t-61 -183t-166 -66.5q-236 0 -235 260zM299 1298q0 -172 129 -172q119 0 119 172q0 74 -34 111t-87 37t-90 -35t-37 -113z" />
<glyph unicode="&#xb1;" horiz-adv-x="1159" d="M92 -90l6 65q131 25 248 25l715 -14q4 -20 4 -60l-4 -61q-131 -25 -246 -25l-717 15q-6 27 -6 55zM92 618l6 66q131 25 248 25l150 -2l10 434q29 6 57 6l68 -6q25 -131 24.5 -239.5t-2.5 -199.5l408 -8q4 -20 4 -59l-4 -62q-131 -25 -232.5 -24.5t-179.5 2.5l-8 -451 q-20 -4 -59 -4l-66 4q-25 131 -24.5 243t2.5 210l-396 10q-6 27 -6 55z" />
<glyph unicode="&#xb2;" horiz-adv-x="710" d="M53 670q279 305 346.5 404.5t67.5 183t-39 119.5t-105.5 36t-93.5 -8l-34 -176l-82 4q-25 72 -25 201q96 96 257 96t232.5 -65.5t71.5 -173t-62.5 -203t-334.5 -400.5l4 -18l291 2q8 98 18 135l74 -6q18 -127 18 -246h-587q-16 33 -17 115z" />
<glyph unicode="&#xb3;" horiz-adv-x="708" d="M51 586q4 80 19 106q104 -23 150 -22.5t75 4.5t80 18.5t85 53t34 105.5t-56.5 106.5t-148.5 39.5q-4 0 -84 -6q-4 6 -4 46t2 59l63 8q78 8 134.5 53t56.5 111q0 154 -176 153q-25 0 -66 -10l-35 -178l-82 6q-25 84 -24 201q31 35 99.5 65.5t119.5 30.5q141 0 232 -63.5 t91 -153.5q0 -156 -182 -234q88 0 155.5 -54t67.5 -161q0 -143 -125.5 -232t-249.5 -89t-231 37z" />
<glyph unicode="&#xb4;" horiz-adv-x="573" d="M131 1274l287 233q80 -61 86 -125q-49 -47 -122 -95t-169 -97q-37 27 -82 84z" />
<glyph unicode="&#xb6;" horiz-adv-x="1345" d="M133 1008.5q0 201.5 119 318.5t326 117l122 2q57 0 82 -4q0 -51 -12 -108.5t-14 -55.5q-8 -698 -15 -1493h-338l-6 72q95 33 185 49l-13 653q-221 0 -328.5 124t-107.5 325.5zM831 1442q28 4 91 4q199 0 303 -31q8 -57 8 -106q-68 -18 -180 -25q-2 -152 -10.5 -634 t-10.5 -744q82 -16 185 -49l-7 -72h-338l-14 1493q-6 -6 -16.5 66.5t-10.5 97.5z" />
<glyph unicode="&#xb7;" horiz-adv-x="425" d="M104.5 600.5q-0.5 58.5 4.5 87.5q45 10 95 10t107 -4q12 -53 12 -103t-4 -99q-53 -12 -103 -12.5t-99 5.5q-12 57 -12.5 115.5z" />
<glyph unicode="&#xb8;" horiz-adv-x="675" d="M348 -168q0 53 72 213q12 6 33.5 6t38.5 -6q-33 -111 -50 -151q164 -70 164 -128.5t-56 -123t-128 -88.5l-23 26q8 23 27 60q49 94 49 108q0 39 -127 84z" />
<glyph unicode="&#xb9;" horiz-adv-x="702" d="M41 1438l309 94q61 -18 78 -47q-2 -55 -18 -789l129 -10q0 -61 -25 -117h-440v80l196 35q-8 457 -14 692q-41 -23 -102.5 -40t-85.5 -17q-27 53 -27 119z" />
<glyph unicode="&#xba;" horiz-adv-x="882" d="M100 1071q0 184 83 286.5t257 102.5t251 -93t77 -277.5t-82 -290t-248 -105.5q-338 0 -338 377zM231.5 1083q-0.5 -145 42.5 -223t161 -78t160 76t42 216t-42 219t-142.5 79t-163.5 -31q-57 -113 -57.5 -258z" />
<glyph unicode="&#xbb;" horiz-adv-x="980" d="M143 254q162 238 195 274q-23 25 -55 70l-140 205q57 66 99 69q96 -94 161 -186l93 -133q4 -6 4 -25.5t-2 -25.5q-127 -176 -166 -221t-90 -97q-29 8 -99 70zM512 254q162 238 195 274q-23 25 -56 70l-139 205q57 66 98 69q96 -94 162 -186l92 -133q4 -6 4 -25.5 t-2 -25.5q-127 -176 -165.5 -221t-90.5 -97q-29 8 -98 70z" />
<glyph unicode="&#xbc;" horiz-adv-x="1755" d="M41 1438l309 94q61 -18 78 -47q-2 -55 -18 -789l129 -10q0 -61 -25 -117h-440v80l196 35q-8 457 -14 692q-41 -23 -102.5 -40t-85.5 -17q-27 53 -27 119zM287 35l1013 1472q73 -29 134 -90l-1069 -1442q-25 10 -78 60zM958 354l383 615h220q-6 -201 -15 -602h156 q0 -84 -14 -121h-144l-10 -240q-37 -4 -61.5 -4t-51.5 6l-12 238h-434q-16 39 -17 108zM1110 367h297l-4 467z" />
<glyph unicode="&#xbd;" horiz-adv-x="1734" d="M41 1438l309 94q61 -18 78 -47q-2 -55 -18 -789l129 -10q0 -61 -25 -117h-440v80l196 35q-8 457 -14 692q-41 -23 -102.5 -40t-85.5 -17q-27 53 -27 119zM287 35l1013 1472q73 -29 134 -90l-1069 -1442q-25 10 -78 60zM1087 88q279 305 346.5 404.5t67.5 183.5t-39 119.5 t-105.5 35.5t-92.5 -8l-35 -176l-82 4q-25 72 -25 201q96 96 257 96t232.5 -65.5t71.5 -173t-62 -202.5t-335 -401l4 -18l291 2q8 98 18 135l74 -6q19 -127 19 -246h-588q-16 33 -17 115z" />
<glyph unicode="&#xbe;" horiz-adv-x="1714" d="M51 586q4 80 19 106q104 -23 150 -22.5t75 4.5t80 18.5t85 53t34 105.5t-56.5 106.5t-148.5 39.5q-4 0 -84 -6q-4 6 -4 46t2 59l63 8q78 8 134.5 53t56.5 111q0 154 -176 153q-25 0 -66 -10l-35 -178l-82 6q-25 84 -24 201q31 35 99.5 65.5t119.5 30.5q141 0 232 -63.5 t91 -153.5q0 -156 -182 -234q88 0 155.5 -54t67.5 -161q0 -143 -125.5 -232t-249.5 -89t-231 37zM246 35l1014 1472q72 -29 133 -90l-1069 -1442q-25 10 -78 60zM918 354l382 615h220q-6 -201 -15 -602h156q0 -84 -14 -121h-144l-10 -240q-37 -4 -60.5 -4t-52.5 6l-12 238 h-434q-16 39 -16 108zM1069 367h297l-4 467z" />
<glyph unicode="&#xbf;" horiz-adv-x="997" d="M123 -150q0 86 47 178.5t104 159.5q168 197 199 328q8 31 8 154q37 6 88 6q33 -74 47 -170q-12 -84 -65 -177t-108.5 -162t-100.5 -161t-45 -181t57.5 -144.5t141.5 -55.5t145 25l47 211l119 -4q29 -80 37 -228q-158 -123 -369 -123q-352 0 -352 344zM414 911q0 61 4 88 q53 12 103 12.5t100 -5.5q12 -57 12 -116t-4 -87q-45 -10 -93.5 -10t-109.5 4q-12 53 -12 114z" />
<glyph unicode="&#xc0;" horiz-adv-x="1513" d="M10 72q80 29 170 45l398 1161q-182 20 -256 49l8 64q37 12 200.5 27.5t298 15.5t207.5 -13q2 -8 2 -19t-11 -52t-17 -54q-16 -16 -92 -24l391 -1133l194 -16q0 -57 -35 -123h-471l-6 72q47 25 137 43l-104 293h-571l-97 -269l166 -16q0 -57 -35 -123h-471zM489 539h498 l-125 325l-108 402q-12 2 -35 2l-111 -418zM507 1775q2 29 23.5 60t62.5 65l287 -233q-47 -55 -82 -84q-180 86 -291 192z" />
<glyph unicode="&#xc1;" horiz-adv-x="1513" d="M10 72q80 29 170 45l398 1161q-182 20 -256 49l8 64q37 12 200.5 27.5t298 15.5t207.5 -13q2 -8 2 -19t-11 -52t-17 -54q-16 -16 -92 -24l391 -1133l194 -16q0 -57 -35 -123h-471l-6 72q47 25 137 43l-104 293h-571l-97 -269l166 -16q0 -57 -35 -123h-471zM489 539h498 l-125 325l-108 402q-12 2 -35 2l-111 -418zM610 1667l287 233q80 -61 86 -125q-49 -47 -122 -95t-169 -97q-37 27 -82 84z" />
<glyph unicode="&#xc2;" horiz-adv-x="1513" d="M10 72q80 29 170 45l398 1161q-182 20 -256 49l8 64q37 12 200.5 27.5t298 15.5t207.5 -13q2 -8 2 -19t-11 -52t-17 -54q-16 -16 -92 -24l391 -1133l194 -16q0 -57 -35 -123h-471l-6 72q47 25 137 43l-104 293h-571l-97 -269l166 -16q0 -57 -35 -123h-471zM467 1667 l288 233l289 -233q-20 -29 -67 -74q-2 2 -32 15.5t-57 27.5q-80 43 -133 92q-72 -68 -190 -118q-29 -14 -31 -17q-49 45 -67 74zM489 539h498l-125 325l-108 402q-12 2 -35 2l-111 -418z" />
<glyph unicode="&#xc3;" horiz-adv-x="1513" d="M10 72q80 29 170 45l398 1161q-182 20 -256 49l8 64q37 12 200.5 27.5t298 15.5t207.5 -13q2 -8 2 -19t-11 -52t-17 -54q-16 -16 -92 -24l391 -1133l194 -16q0 -57 -35 -123h-471l-6 72q47 25 137 43l-104 293h-571l-97 -269l166 -16q0 -57 -35 -123h-471zM379 1679 q55 76 134 123t93 47q39 0 148.5 -47t132.5 -53q117 63 172 82l35 -59q-55 -76 -158 -138q-8 -4 -23 -16q-33 -23 -47 -23q-41 14 -104 41q-141 60 -176 60q-59 -39 -172 -76zM489 539h498l-125 325l-108 402q-12 2 -35 2l-111 -418z" />
<glyph unicode="&#xc4;" horiz-adv-x="1513" d="M10 72q80 29 170 45l398 1161q-182 20 -256 49l8 64q37 12 200.5 27.5t298 15.5t207.5 -13q2 -8 2 -19t-11 -52t-17 -54q-16 -16 -92 -24l391 -1133l194 -16q0 -57 -35 -123h-471l-6 72q47 25 137 43l-104 293h-571l-97 -269l166 -16q0 -57 -35 -123h-471zM485 1705 q0 38 4 87q31 6 84 6t78 -2q8 -45 8 -93.5t-2 -68.5q-41 -8 -87 -8t-75 4q-10 37 -10 75zM489 539h498l-125 325l-108 402q-12 2 -35 2l-111 -418zM823 1705q0 38 4 87q31 6 84 6t78 -2q8 -45 8 -93.5t-2 -68.5q-41 -8 -87 -8t-75 4q-10 37 -10 75z" />
<glyph unicode="&#xc5;" horiz-adv-x="1513" d="M10 72q80 29 170 45l398 1161q-182 20 -256 49l8 64q37 12 200.5 27.5t298 15.5t207.5 -13q2 -8 2 -19t-11 -52t-17 -54q-16 -16 -92 -24l391 -1133l194 -16q0 -57 -35 -123h-471l-6 72q47 25 137 43l-104 293h-571l-97 -269l166 -16q0 -57 -35 -123h-471zM487 1818.5 q0 110.5 75 176t175.5 65.5t173 -65.5t72.5 -177t-71.5 -172t-174 -60.5t-176.5 61.5t-74 172zM489 539h498l-125 325l-108 402q-12 2 -35 2l-111 -418zM612 1819.5q0 -66.5 34 -105.5t90.5 -39t90 39t33.5 105.5t-33.5 106.5t-90 40t-90.5 -40t-34 -106.5z" />
<glyph unicode="&#xc6;" horiz-adv-x="1892" d="M-61 72q80 29 170 45l630 1190l-172 49l11 76h1144q4 -27 4 -80q0 -113 -28 -244q-45 -10 -119 -10l-49 194h-420l-10 -493h323l17 147q57 0 123 -35v-389l-72 -6q-31 88 -41 148h-350q-4 -178 -8 -527h469l49 193l119 -8q29 -117 28.5 -206t-4.5 -116h-995l-6 72 q90 33 174 47q0 129 -6 289h-486l-149 -269l166 -16q0 -57 -35 -123h-471zM498 539h420l-13 749z" />
<glyph unicode="&#xc7;" horiz-adv-x="1210" d="M41 729q0 358 146.5 544.5t467.5 186.5q258 0 459 -143q0 -115 -29 -291q-29 -6 -118 -6l-62 254q-145 27 -233 26q-162 0 -285 -45l-39 -14q-12 -20 -30.5 -60t-48 -167t-29.5 -260q0 -289 95 -459t304 -170q150 0 225 31l60 30l43 246l118 -6q31 -211 31 -342 q-43 -33 -185.5 -72t-287.5 -39q-602 0 -602 756zM541 -168q0 53 72 213q12 6 33.5 6t38.5 -6q-33 -111 -50 -151q164 -70 164 -128.5t-56 -123t-128 -88.5l-23 26q8 23 27 60q49 94 49 108q0 39 -127 84z" />
<glyph unicode="&#xc8;" d="M61 1356l11 78h987q4 -27 4 -82q0 -113 -29 -244q-45 -10 -119 -10l-49 194h-420l-10 -493h324l16 147q57 0 123 -35v-389l-72 -6q-31 88 -41 148h-350q-4 -178 -8 -527h469l49 193l119 -8q29 -117 29 -206t-4 -116h-996l-6 72q90 33 174 47q-12 799 -20 1188 q-45 4 -181 49zM342 1776q2 29 23.5 59.5t62.5 65.5l287 -234q-45 -55 -82 -84q-180 86 -291 193z" />
<glyph unicode="&#xc9;" d="M61 1356l11 78h987q4 -27 4 -82q0 -113 -29 -244q-45 -10 -119 -10l-49 194h-420l-10 -493h324l16 147q57 0 123 -35v-389l-72 -6q-31 88 -41 148h-350q-4 -178 -8 -527h469l49 193l119 -8q29 -117 29 -206t-4 -116h-996l-6 72q90 33 174 47q-12 799 -20 1188 q-45 4 -181 49zM463 1667l287 234q80 -61 86 -125q-49 -47 -122 -95.5t-169 -97.5q-37 27 -82 84z" />
<glyph unicode="&#xca;" d="M61 1356l11 78h987q4 -27 4 -82q0 -113 -29 -244q-45 -10 -119 -10l-49 194h-420l-10 -493h324l16 147q57 0 123 -35v-389l-72 -6q-31 88 -41 148h-350q-4 -178 -8 -527h469l49 193l119 -8q29 -117 29 -206t-4 -116h-996l-6 72q90 33 174 47q-12 799 -20 1188 q-45 4 -181 49zM289 1667l289 234l288 -234q-12 -18 -67 -74q-2 2 -32 15.5t-56 27.5q-80 43 -133 93q-72 -68 -189 -119q-31 -14 -33 -17q-49 45 -67 74z" />
<glyph unicode="&#xcb;" d="M61 1356l11 78h987q4 -27 4 -82q0 -113 -29 -244q-45 -10 -119 -10l-49 194h-420l-10 -493h324l16 147q57 0 123 -35v-389l-72 -6q-31 88 -41 148h-350q-4 -178 -8 -527h469l49 193l119 -8q29 -117 29 -206t-4 -116h-996l-6 72q90 33 174 47q-12 799 -20 1188 q-45 4 -181 49zM334 1705q0 38 4 87q31 6 84 6t78 -2q8 -45 8 -93.5t-2 -68.5q-41 -8 -87 -8t-75 4q-10 37 -10 75zM672 1705q0 38 4 87q31 6 84 6t78 -2q8 -45 8 -93.5t-2 -68.5q-41 -8 -87 -8t-75 4q-10 37 -10 75z" />
<glyph unicode="&#xcc;" horiz-adv-x="778" d="M113 1362l6 72h512q35 -66 35 -123q-105 -8 -166 -8l-21 -1164l172 -16q0 -57 -35 -123h-471l-6 72q94 33 187 49q-4 133 -13.5 548.5t-15.5 643.5q-82 16 -184 49zM143 1775q2 29 23.5 60t62.5 65l287 -233q-47 -55 -82 -84q-180 86 -291 192z" />
<glyph unicode="&#xcd;" horiz-adv-x="790" d="M113 1362l6 72h512q35 -66 35 -123l-166 -8l-21 -1164q92 -4 172 -16q0 -57 -35 -123h-471l-6 72q98 31 187 49q-4 133 -13.5 548.5t-15.5 643.5q-90 16 -184 49zM305 1667l287 234q80 -61 86 -125q-49 -47 -122 -95.5t-169 -97.5q-37 27 -82 84z" />
<glyph unicode="&#xce;" horiz-adv-x="802" d="M113 1667l288 234l289 -234q-12 -18 -67 -74q-2 2 -32 15.5t-56 27.5q-80 43 -134 93q-72 -68 -188 -119q-31 -14 -33 -17q-49 45 -67 74zM125 1362l6 72h512q35 -66 35 -123l-166 -8l-20 -1164q92 -4 172 -16q0 -57 -35 -123h-471l-6 72q98 31 186 49 q-4 133 -13.5 548.5t-15.5 643.5q-90 16 -184 49z" />
<glyph unicode="&#xcf;" horiz-adv-x="778" d="M113 1362l6 72h512q35 -66 35 -123l-166 -8l-21 -1164q92 -4 172 -16q0 -57 -35 -123h-471l-6 72q98 31 187 49q-4 133 -13.5 548.5t-15.5 643.5q-90 16 -184 49zM133 1705q0 38 4 87q31 6 84 6t78 -2q8 -45 8 -93.5t-2 -68.5q-41 -8 -87 -8t-75 4q-10 37 -10 75z M471 1705q0 38 4 87q31 6 84 6t78 -2q8 -45 8 -93.5t-2 -68.5q-41 -8 -87 -8t-75 4q-10 37 -10 75z" />
<glyph unicode="&#xd0;" horiz-adv-x="1363" d="M55 725l4 66q98 6 191 10q-8 334 -10 506q-92 12 -181 49q4 70 11 78h516q213 0 337 -39t216 -144q143 -157 143 -501q0 -463 -211 -629q-88 -70 -190.5 -95.5t-268.5 -25.5h-520l-6 72q8 6 84 26.5t90 20.5q-4 180 -8 545l-193 6q-4 18 -4 55zM403 139h215 q281 0 373 126t92 468q0 276 -103 416.5t-347 140.5h-209q-8 -328 -10 -491l274 -8q4 -31 4 -67t-4 -54q-106 -10 -201 -11h-75q-4 -172 -9 -520z" />
<glyph unicode="&#xd1;" horiz-adv-x="1607" d="M61 1362l7 72h405l748 -1194l-35 1073q-76 14 -182 49l6 72h512q35 -66 34 -123q-102 -8 -163 -8l-21 -1303h-198l-728 1180l-20 -1041l172 -16q0 -57 -35 -123h-471l-6 72q111 37 188 49q-4 133 -13 548.5t-15 643.5q-78 12 -185 49zM635 1679q55 76 134 123t94 47 q39 0 148.5 -47t131.5 -53q117 63 172 82l35 -60q-55 -76 -158 -137q-8 -4 -22 -16q-33 -23 -47 -23q-41 14 -105 41q-141 60 -176 60q-59 -39 -172 -76z" />
<glyph unicode="&#xd2;" horiz-adv-x="1325" d="M41 708.5q0 360.5 148.5 556t483.5 195.5t473 -179t138 -541.5t-148.5 -563.5t-473 -201t-473 186.5t-148.5 547zM241.5 736.5q0.5 -285.5 95.5 -444.5t333 -159q414 0 413.5 582.5t-413.5 582.5q-195 0 -318 -57q-111 -219 -110.5 -504.5zM434 1776q2 29 23.5 59.5 t62.5 65.5l287 -234q-47 -55 -82 -84q-180 86 -291 193z" />
<glyph unicode="&#xd3;" horiz-adv-x="1325" d="M41 708.5q0 360.5 148.5 556t483.5 195.5t473 -179t138 -541.5t-148.5 -563.5t-473 -201t-473 186.5t-148.5 547zM241.5 736.5q0.5 -285.5 95.5 -444.5t333 -159q414 0 413.5 582.5t-413.5 582.5q-195 0 -318 -57q-111 -219 -110.5 -504.5zM539 1667l286 234 q80 -61 86 -125q-49 -47 -121.5 -95.5t-168.5 -97.5q-37 27 -82 84z" />
<glyph unicode="&#xd4;" horiz-adv-x="1325" d="M41 708.5q0 360.5 148.5 556t483.5 195.5t473 -179t138 -541.5t-148.5 -563.5t-473 -201t-473 186.5t-148.5 547zM241.5 736.5q0.5 -285.5 95.5 -444.5t333 -159q414 0 413.5 582.5t-413.5 582.5q-195 0 -318 -57q-111 -219 -110.5 -504.5zM375 1667l288 233l289 -233 q-20 -29 -67 -74q-2 2 -32 15.5t-57 27.5q-80 43 -133 92q-72 -68 -190 -118q-29 -14 -31 -17q-49 45 -67 74z" />
<glyph unicode="&#xd5;" horiz-adv-x="1325" d="M41 708.5q0 360.5 148.5 556t483.5 195.5t473 -179t138 -541.5t-148.5 -563.5t-473 -201t-473 186.5t-148.5 547zM241.5 736.5q0.5 -285.5 95.5 -444.5t333 -159q414 0 413.5 582.5t-413.5 582.5q-195 0 -318 -57q-111 -219 -110.5 -504.5zM479 1679q55 76 134 123t94 47 q39 0 148.5 -47t131.5 -53q117 63 172 82l35 -60q-55 -76 -158 -137q-8 -4 -22 -16q-33 -23 -47 -23q-41 14 -105 41q-141 60 -176 60q-59 -39 -172 -76z" />
<glyph unicode="&#xd6;" horiz-adv-x="1325" d="M41 708.5q0 360.5 148.5 556t483.5 195.5t473 -179t138 -541.5t-148.5 -563.5t-473 -201t-473 186.5t-148.5 547zM241.5 736.5q0.5 -285.5 95.5 -444.5t333 -159q414 0 413.5 582.5t-413.5 582.5q-195 0 -318 -57q-111 -219 -110.5 -504.5zM408 1705q0 38 4 87q31 6 84 6 t78 -2q8 -45 8 -93.5t-2 -68.5q-41 -8 -87 -8t-75 4q-10 37 -10 75zM746 1705q0 38 4 87q31 6 84 6t78 -2q8 -45 8 -93.5t-2 -68.5q-41 -8 -87 -8t-75 4q-10 37 -10 75z" />
<glyph unicode="&#xd7;" horiz-adv-x="1077" d="M123 842q33 49 88 88q125 -86 219 -185q55 -59 111 -114l317 305q49 -35 90 -88q-76 -109 -157 -191l-142 -137l305 -319q-33 -47 -88 -88q-111 76 -190 155q-29 25 -139 144l-320 -306q-45 31 -86 89q76 109 152.5 186.5t144.5 140.5z" />
<glyph unicode="&#xd8;" horiz-adv-x="1325" d="M41 705q0 365 148.5 560t480.5 195q104 0 186 -18l70 196q84 -18 133 -51l-70 -186q158 -74 226.5 -239t68.5 -429q0 -356 -148.5 -557t-465.5 -201q-104 0 -199 23l-74 -205q-74 10 -108 45l69 197q-317 145 -317 670zM242 733q0 -397 176 -528l381 1075q-57 18 -129 18 q-195 0 -318 -57q-110 -219 -110 -508zM528 152q62 -19 142 -19q414 0 413 576q0 367 -161 505z" />
<glyph unicode="&#xd9;" horiz-adv-x="1544" d="M49 1362l6 72h514q35 -66 35 -123q-59 -4 -170 -8q-4 -238 -4 -713q0 -256 95.5 -356.5t271.5 -100.5q76 0 132 16.5t111 63.5q111 94 111 381q0 2 -18 709q-160 47 -185 59l6 72h508q33 -84 33 -121q-129 0 -166 -2q-4 -164 -9 -464t-7 -394q-6 -233 -143 -355.5 t-375 -122.5q-117 0 -203 18.5t-166 67.5q-166 98 -171 391t-22 861q-82 16 -184 49zM548 1775q2 29 23.5 60t62.5 65l287 -233q-47 -55 -82 -84q-180 86 -291 192z" />
<glyph unicode="&#xda;" horiz-adv-x="1544" d="M49 1362l6 72h514q35 -66 35 -123q-59 -4 -170 -8q-4 -238 -4 -713q0 -256 95.5 -356.5t271.5 -100.5q76 0 132 16.5t111 63.5q111 94 111 381q0 2 -18 709q-160 47 -185 59l6 72h508q33 -84 33 -121q-129 0 -166 -2q-4 -164 -9 -464t-7 -394q-6 -233 -143 -355.5 t-375 -122.5q-117 0 -203 18.5t-166 67.5q-166 98 -171 391t-22 861q-82 16 -184 49zM666 1667l287 233q80 -61 86 -125q-49 -47 -122 -95t-169 -97q-37 27 -82 84z" />
<glyph unicode="&#xdb;" horiz-adv-x="1544" d="M49 1362l6 72h514q35 -66 35 -123l-170 -8q-4 -238 -4 -713q0 -256 95.5 -356.5t271.5 -100.5q76 0 132 16.5t111 63.5q111 94 111 381q0 2 -18 709q-160 47 -185 59l6 72h508q33 -84 33 -121q-129 0 -166 -2q-4 -164 -9 -464t-7 -394q-6 -233 -143.5 -355.5 t-374.5 -122.5q-117 0 -203 18.5t-166 67.5q-166 98 -170 390q-6 295 -23 862q-90 16 -184 49zM487 1667l289 234l289 -234q-12 -18 -68 -74q-2 2 -31.5 15.5t-56.5 27.5q-80 43 -133 93q-72 -68 -190 -119q-29 -14 -31 -17q-49 45 -68 74z" />
<glyph unicode="&#xdc;" horiz-adv-x="1544" d="M49 1362l6 72h514q35 -66 35 -123l-170 -8q-4 -238 -4 -713q0 -256 95.5 -356.5t271.5 -100.5q76 0 132 16.5t111 63.5q111 94 111 381q0 2 -18 709q-160 47 -185 59l6 72h508q33 -84 33 -121q-129 0 -166 -2q-4 -164 -9 -464t-7 -394q-6 -233 -143.5 -355.5 t-374.5 -122.5q-117 0 -203 18.5t-166 67.5q-166 98 -170 390q-6 295 -23 862q-90 16 -184 49zM535 1705q0 38 4 87q31 6 84 6t77 -2q8 -45 8.5 -93.5t-1.5 -68.5q-41 -8 -87.5 -8t-74.5 4q-10 37 -10 75zM872.5 1705q-0.5 38 4.5 87q31 6 84 6t77 -2q8 -45 8 -93.5 t-2 -68.5q-41 -8 -87 -8t-74 4q-10 37 -10.5 75z" />
<glyph unicode="&#xdd;" horiz-adv-x="1386" d="M10 1362l6 72h533q35 -66 35 -123q-100 -6 -185 -13l306 -620h22l305 635q-82 12 -192 49l6 72h495q35 -66 35 -123q-90 -6 -174 -13l-407 -786l-9 -373l172 -16q0 -61 -32 -123h-473l-7 72q125 43 189 49q-2 127 -10 391l-430 801q-82 16 -185 49zM661 1659l287 233 q80 -61 86 -125q-49 -47 -122 -95t-169 -97q-37 27 -82 84z" />
<glyph unicode="&#xde;" horiz-adv-x="1185" d="M41 1362l6 72h512q35 -66 35 -123q-102 -8 -164 -8q-4 -70 -4 -187q209 49 264 49q434 0 434 -430q0 -154 -102 -284q-51 -66 -140 -108t-181.5 -42t-288.5 68q-4 -152 -4 -230l172 -16q0 -57 -35 -123h-471l-6 72q96 33 188 49q-20 795 -33 1192q-76 14 -182 49z M414 506q174 -66 252 -66q127 0 202.5 76t75.5 209q0 289 -268 289q-115 0 -252 -25q-4 -92 -6 -261t-4 -222z" />
<glyph unicode="&#xdf;" horiz-adv-x="1335" d="M51 72q94 33 185 49q-8 514 -15 778h-158l-6 72q25 12 79 26.5t85 18.5q12 235 122 376.5t314.5 141.5t323.5 -83t119 -206q0 -141 -99 -215q-41 -31 -83 -57q-98 -63 -99 -152q0 -98 160 -174q68 -33 134.5 -69.5t113.5 -102t47 -156.5q0 -344 -408 -344q-119 0 -209 33 q0 147 31 256l107 8l24 -184q14 -8 47 -8q82 0 150.5 57.5t68.5 157.5q0 104 -159 178q-66 31 -131.5 66.5t-111.5 100.5t-46 151t43 145t93 90t93 82t43 118.5t-75.5 112.5t-189.5 45t-176 -82.5t-65 -273.5q-6 -301 -14 -889l174 -8q0 -66 -35 -131h-471z" />
<glyph unicode="&#xe0;" horiz-adv-x="1103" d="M84 268q0 322 393 332q229 6 232 6l-2 70q-4 141 -53.5 203.5t-176.5 62.5q-53 0 -115 -24l-49 -205q-10 -2 -34 -2l-84 6q-33 88 -35 244q39 20 178 62t178 42q209 0 295 -92t86 -303l-10 -529q88 -6 176 -28l-4 -72q-33 -16 -118 -35.5t-167 -19.5q-37 74 -41 141 q-233 -154 -327 -154q-145 0 -233.5 78t-88.5 217zM272 287q1 -174 179 -174q59 0 274 133l-10 256q-139 -12 -233.5 -22.5t-152 -54.5t-57.5 -138zM340 1382q2 29 23.5 60t62.5 65l287 -233q-47 -55 -82 -84q-180 86 -291 192z" />
<glyph unicode="&#xe1;" horiz-adv-x="1103" d="M84 268q0 322 393 332q229 6 232 6l-2 70q-4 141 -53.5 203.5t-176.5 62.5q-53 0 -115 -24l-49 -205q-10 -2 -34 -2l-84 6q-33 88 -35 244q39 20 178 62t178 42q209 0 295 -92t86 -303l-10 -529q88 -6 176 -28l-4 -72q-33 -16 -118 -35.5t-167 -19.5q-37 74 -41 141 q-233 -154 -327 -154q-145 0 -233.5 78t-88.5 217zM272 287q1 -174 179 -174q59 0 274 133l-10 256q-139 -12 -233.5 -22.5t-152 -54.5t-57.5 -138zM436 1274l287 233q80 -61 86 -125q-49 -47 -122 -95t-169 -97q-37 27 -82 84z" />
<glyph unicode="&#xe2;" horiz-adv-x="1103" d="M84 268q0 322 393 332q229 6 232 6l-2 70q-4 141 -53.5 203.5t-176.5 62.5q-53 0 -115 -24l-49 -205q-10 -2 -34 -2l-84 6q-33 88 -35 244q39 20 178 62t178 42q209 0 295 -92t86 -303l-10 -529q88 -6 176 -28l-4 -72q-33 -16 -118 -35.5t-167 -19.5q-37 74 -41 141 q-233 -154 -327 -154q-145 0 -233.5 78t-88.5 217zM272 287q1 -174 179 -174q59 0 274 133l-10 256q-139 -12 -233.5 -22.5t-152 -54.5t-57.5 -138zM291 1274l289 233l288 -233q-20 -29 -67 -74q-2 2 -32 15.5t-56 27.5q-80 43 -133 92q-72 -68 -191 -118q-29 -14 -31 -17 q-49 45 -67 74z" />
<glyph unicode="&#xe3;" horiz-adv-x="1103" d="M84 268q0 322 393 332q229 6 232 6l-2 70q-4 141 -53.5 203.5t-176.5 62.5q-53 0 -115 -24l-49 -205q-10 -2 -34 -2l-84 6q-33 88 -35 244q39 20 178 62t178 42q209 0 295 -92t86 -303l-10 -529q88 -6 176 -28l-4 -72q-33 -16 -118 -35.5t-167 -19.5q-37 74 -41 141 q-233 -154 -327 -154q-145 0 -233.5 78t-88.5 217zM172 1286q55 76 134 123t93 47q39 0 148.5 -47t132.5 -53q117 63 172 82l35 -60q-55 -76 -158 -137q-8 -4 -24 -16q-31 -23 -46 -23q-41 14 -104 41q-141 60 -176 60q-59 -39 -172 -76zM272 287q1 -174 179 -174 q59 0 274 133l-10 256q-139 -12 -233.5 -22.5t-152 -54.5t-57.5 -138z" />
<glyph unicode="&#xe4;" horiz-adv-x="1103" d="M84 268q0 322 393 332q229 6 232 6l-2 70q-4 141 -53.5 203.5t-176.5 62.5q-53 0 -115 -24l-49 -205q-10 -2 -34 -2l-84 6q-33 88 -35 244q39 20 178 62t178 42q209 0 295 -92t86 -303l-10 -529q88 -6 176 -28l-4 -72q-33 -16 -118 -35.5t-167 -19.5q-37 74 -41 141 q-233 -154 -327 -154q-145 0 -233.5 78t-88.5 217zM272 287q1 -174 179 -174q59 0 274 133l-10 256q-139 -12 -233.5 -22.5t-152 -54.5t-57.5 -138zM285 1312q0 38 4 87q31 6 84 6t78 -2q8 -45 8 -93.5t-2 -68.5q-41 -8 -87 -8t-75 4q-10 37 -10 75zM623 1312q0 38 4 87 q31 6 84 6t77 -2q8 -45 8.5 -93.5t-1.5 -68.5q-41 -8 -87 -8t-75 4q-10 37 -10 75z" />
<glyph unicode="&#xe5;" horiz-adv-x="1103" d="M84 268q0 322 393 332q229 6 232 6l-2 70q-4 141 -53.5 203.5t-176.5 62.5q-53 0 -115 -24l-49 -205q-10 -2 -34 -2l-84 6q-33 88 -35 244q39 20 178 62t178 42q209 0 295 -92t86 -303l-10 -529q88 -6 176 -28l-4 -72q-33 -16 -118 -35.5t-167 -19.5q-37 74 -41 141 q-233 -154 -327 -154q-145 0 -233.5 78t-88.5 217zM272 287q1 -174 179 -174q59 0 274 133l-10 256q-139 -12 -233.5 -22.5t-152 -54.5t-57.5 -138zM279 1402.5q0 110.5 74.5 176.5t175 66t173 -66t72.5 -177.5t-71.5 -172t-174 -60.5t-176 61.5t-73.5 172zM403 1403.5 q0 -66.5 34 -105t90.5 -38.5t90 38.5t33.5 105t-33.5 106.5t-90 40t-90.5 -40t-34 -106.5z" />
<glyph unicode="&#xe6;" horiz-adv-x="1691" d="M92 268q0 115 55.5 204t180.5 111.5t391 22.5l-2 70q-4 145 -54.5 205.5t-175.5 60.5q-53 0 -114 -24l-49 -207h-35l-84 6q-33 88 -35 244q39 20 178 62t178 42q238 0 324 -139q123 139 334 139t312 -132t101 -337v-31q-14 -27 -24 -26h-666q0 -305 146 -389 q63 -37 146 -37t183.5 25.5t149.5 47.5q37 -51 37 -82v-16q-186 -111 -342 -111t-260.5 57.5t-159.5 151.5q-51 -47 -186.5 -129t-204.5 -82q-324 0 -324 293zM272 287q0 -84 51.5 -128t137.5 -44q61 0 227 118q45 33 47 33l-10 236q-262 -27 -305 -37q-147 -39 -148 -178z M911 645q162 2 496 10q0 287 -201 287q-125 -2 -208 -82t-87 -215z" />
<glyph unicode="&#xe7;" horiz-adv-x="972" d="M74 508q0 -256 120.5 -394.5t366.5 -138.5q43 0 143.5 35t204.5 96q-2 41 -41 95q-193 -86 -282 -86q-190 0 -257 110.5t-67 323.5t87 303t235 90q10 0 78 -6l51 -225q14 -2 24 -2h35q23 0 59 10q33 80 39 270q-49 29 -135 52.5t-166 23.5q-496 0 -495 -557zM459 -168 q0 53 71 213q12 6 34 6t38 -6q-33 -111 -49 -151q164 -70 164 -128.5t-56.5 -123t-128.5 -88.5l-22 26q8 23 27 60q49 94 49 108q0 39 -127 84z" />
<glyph unicode="&#xe8;" horiz-adv-x="1048" d="M82 516q0 256 122 402.5t365 146.5q188 0 287.5 -135t99.5 -363q-16 -29 -26 -39l-660 11q2 -207 73 -315.5t251 -108.5q90 0 283 86q39 -53 41 -95q-104 -61 -205 -96t-144 -35q-238 0 -362.5 142.5t-124.5 398.5zM274 645q162 2 496 10q0 136 -49 210.5t-164 74.5 t-205 -43q-61 -123 -78 -252zM305 1382q2 29 23.5 60t62.5 65l287 -233q-47 -55 -82 -84q-180 86 -291 192z" />
<glyph unicode="&#xe9;" horiz-adv-x="1048" d="M82 516q0 256 122 402.5t365 146.5q188 0 287.5 -135t99.5 -363q-16 -29 -26 -39l-660 11q2 -207 73 -315.5t251 -108.5q90 0 283 86q39 -53 41 -95q-104 -61 -205 -96t-144 -35q-238 0 -362.5 142.5t-124.5 398.5zM274 645q162 2 496 10q0 136 -49 210.5t-164 74.5 t-205 -43q-61 -123 -78 -252zM387 1274l287 233q80 -61 86 -125q-49 -47 -122 -95t-169 -97q-37 27 -82 84z" />
<glyph unicode="&#xea;" horiz-adv-x="1048" d="M82 516q0 256 122 402.5t365 146.5q188 0 287.5 -135t99.5 -363q-16 -29 -26 -39l-660 11q2 -207 73 -315.5t251 -108.5q90 0 283 86q39 -53 41 -95q-104 -61 -205 -96t-144 -35q-238 0 -362.5 142.5t-124.5 398.5zM246 1274l289 233l288 -233q-12 -18 -67 -74 q-2 2 -32 15.5t-56 27.5q-80 43 -133 92q-72 -68 -191 -118q-29 -14 -31 -17q-49 45 -67 74zM274 645q162 2 496 10q0 136 -49 210.5t-164 74.5t-205 -43q-61 -123 -78 -252z" />
<glyph unicode="&#xeb;" horiz-adv-x="1048" d="M82 516q0 256 122 402.5t365 146.5q188 0 287.5 -135t99.5 -363q-16 -29 -26 -39l-660 11q2 -207 73 -315.5t251 -108.5q90 0 283 86q39 -53 41 -95q-104 -61 -205 -96t-144 -35q-238 0 -362.5 142.5t-124.5 398.5zM264 1312q0 38 4 87q31 6 84.5 6t77.5 -2 q8 -45 8 -93.5t-2 -68.5q-41 -8 -87 -8t-75 4q-10 37 -10 75zM274 645q162 2 496 10q0 136 -49 210.5t-164 74.5t-205 -43q-61 -123 -78 -252zM602 1312q0 38 4 87q31 6 84 6t78 -2q8 -45 8 -93.5t-2 -68.5q-41 -8 -87 -8t-75 4q-10 37 -10 75z" />
<glyph unicode="&#xec;" horiz-adv-x="630" d="M61 913l9 107q174 31 270 31t123 -4q0 -49 -12.5 -108.5t-14.5 -57.5l-18 -742l172 -16q0 -57 -35 -123h-471l-6 72q94 33 184 49q-12 512 -20 768q-119 0 -181 24zM86 1382q2 29 23.5 60t62.5 65l287 -233q-45 -55 -82 -84q-180 86 -291 192z" />
<glyph unicode="&#xed;" horiz-adv-x="630" d="M61 913l9 107q174 31 270 31t123 -4q0 -49 -12.5 -108.5t-14.5 -57.5l-18 -742l172 -16q0 -57 -35 -123h-471l-6 72q94 33 184 49q-12 512 -20 768q-119 0 -181 24zM188 1274l287 233q80 -61 86 -125q-49 -47 -121.5 -95t-169.5 -97q-37 27 -82 84z" />
<glyph unicode="&#xee;" horiz-adv-x="679" d="M61 1274l289 233l289 -233q-20 -29 -68 -74q-2 2 -31.5 15.5t-56.5 27.5q-80 43 -133 92q-72 -68 -190 -118q-29 -14 -31 -17q-49 45 -68 74zM84 913l8 107q174 31 270.5 31t122.5 -4q0 -49 -12 -108.5t-14 -57.5l-19 -742l172 -16q0 -57 -34 -123h-472l-6 72 q94 33 185 49q-12 512 -21 768q-119 0 -180 24z" />
<glyph unicode="&#xef;" horiz-adv-x="638" d="M61.5 1312q-0.5 38 4.5 87q31 6 84 6t77 -2q8 -45 8 -93.5t-2 -68.5q-41 -8 -87 -8t-74 4q-10 37 -10.5 75zM70 913l8 107q174 31 270 31t123 -4q0 -49 -12.5 -108.5t-14.5 -57.5l-18 -742l172 -16q0 -57 -35 -123h-471l-6 72q94 33 184 49q-12 512 -20 768 q-119 0 -180 24zM399.5 1312q-0.5 38 3.5 87q31 6 84.5 6t77.5 -2q8 -45 8 -93.5t-2 -68.5q-41 -8 -87 -8t-74 4q-10 37 -10.5 75z" />
<glyph unicode="&#xf0;" horiz-adv-x="1185" d="M74 493.5q0 202.5 124 352t332 149.5q57 0 159 -36.5t153 -81.5q-33 264 -156 393l-233 -152q-35 35 -68 96q78 70 184 144q-113 61 -286 76q-2 10 -2 37.5t16 52.5q201 0 371 -99l196 129q47 -49 70 -100q-76 -61 -148 -115q266 -231 267 -657q0 -709 -506 -709 q-211 0 -342 159t-131 361.5zM264 483.5q0 -198.5 68.5 -292t223.5 -93.5t217.5 106.5t77.5 278.5t15 203t-6 74q-47 31 -146.5 70.5t-183.5 39.5q-139 0 -202.5 -94t-63.5 -292.5z" />
<glyph unicode="&#xf1;" horiz-adv-x="1261" d="M57 915l9 107q111 31 321 31q25 -37 37 -107q88 47 177 83t112 36q197 0 284.5 -97.5t87.5 -295.5q0 -57 -16 -533l172 -16q0 -57 -35 -123h-471l-6 72q94 33 184 49q-12 537 -21 597t-29.5 105t-61.5 63.5t-109 18.5q-135 0 -262 -65q-12 -467 -16 -701l172 -16 q0 -57 -35 -123h-471l-6 72q94 33 184 49q-12 520 -20 770q-113 6 -181 24zM301 1286q55 76 134 123t94 47q39 0 148.5 -47t131.5 -53q117 63 172 82l35 -60q-55 -76 -158 -137q-8 -4 -22 -16q-33 -23 -47 -23q-41 14 -105 41q-141 60 -176 60q-59 -39 -172 -76z" />
<glyph unicode="&#xf2;" horiz-adv-x="1101" d="M74 512q0 260 118.5 406.5t366.5 146.5t358.5 -134t110.5 -396.5t-117.5 -412t-357.5 -149.5t-359.5 139.5t-119.5 399.5zM262 530q0 -201 53 -309q61 -123 232.5 -123t232 107.5t60.5 306.5q0 315 -140 395q-57 33 -160.5 33t-195.5 -43q-82 -158 -82 -367zM358 1382 q2 29 23.5 60t62.5 65l287 -233q-47 -55 -82 -84q-180 86 -291 192z" />
<glyph unicode="&#xf3;" horiz-adv-x="1101" d="M74 512q0 260 118.5 406.5t366.5 146.5t358.5 -134t110.5 -396.5t-117.5 -412t-357.5 -149.5t-359.5 139.5t-119.5 399.5zM262 530q0 -201 53 -309q61 -123 232.5 -123t232 107.5t60.5 306.5q0 315 -140 395q-57 33 -160.5 33t-195.5 -43q-82 -158 -82 -367zM420 1274 l287 233q80 -61 86 -125q-49 -47 -122 -95t-169 -97q-37 27 -82 84z" />
<glyph unicode="&#xf4;" horiz-adv-x="1101" d="M74 512q0 260 118.5 406.5t366.5 146.5t358.5 -134t110.5 -396.5t-117.5 -412t-357.5 -149.5t-359.5 139.5t-119.5 399.5zM262 530q0 -201 53 -309q61 -123 232.5 -123t232 107.5t60.5 306.5q0 315 -140 395q-57 33 -160.5 33t-195.5 -43q-82 -158 -82 -367zM274 1274 l289 233l289 -233q-20 -29 -68 -74q-2 2 -31.5 15.5t-56.5 27.5q-80 43 -133 92q-72 -68 -190 -118q-29 -14 -31 -17q-49 45 -68 74z" />
<glyph unicode="&#xf5;" horiz-adv-x="1101" d="M74 512q0 260 118.5 406.5t366.5 146.5t358.5 -134t110.5 -396.5t-117.5 -412t-357.5 -149.5t-359.5 139.5t-119.5 399.5zM221 1286q55 76 134 123t94 47q39 0 148.5 -47t131.5 -53q117 63 172 82l35 -60q-55 -76 -158 -137q-8 -4 -24 -16q-31 -23 -45 -23 q-41 14 -105 41q-141 60 -176 60q-59 -39 -172 -76zM262 530q0 -201 53 -309q61 -123 232.5 -123t232 107.5t60.5 306.5q0 315 -140 395q-57 33 -160.5 33t-195.5 -43q-82 -158 -82 -367z" />
<glyph unicode="&#xf6;" horiz-adv-x="1101" d="M74 512q0 260 118.5 406.5t366.5 146.5t358.5 -134t110.5 -396.5t-117.5 -412t-357.5 -149.5t-359.5 139.5t-119.5 399.5zM262 530q0 -201 53 -309q61 -123 232.5 -123t232 107.5t60.5 306.5q0 315 -140 395q-57 33 -160.5 33t-195.5 -43q-82 -158 -82 -367zM313.5 1312 q-0.5 38 3.5 87q31 6 84.5 6t77.5 -2q8 -45 8 -93.5t-2 -68.5q-41 -8 -87 -8t-74 4q-10 37 -10.5 75zM651.5 1312q-0.5 38 3.5 87q31 6 84.5 6t77.5 -2q8 -45 8 -93.5t-2 -68.5q-41 -8 -87 -8t-74 4q-10 37 -10.5 75z" />
<glyph unicode="&#xf7;" horiz-adv-x="1159" d="M92 518l6 66q131 25 248 24l715 -14q4 -20 4 -59l-4 -62q-131 -25 -246 -24l-717 14q-6 29 -6 55zM467 127.5q0 58.5 4 87.5q45 10 95 10t108 -4q12 -53 12 -129l-4 -74q-53 -12 -103.5 -12t-99.5 6q-12 57 -12 115.5zM467 936.5q0 58.5 4 87.5q45 10 95 10t108 -4 q12 -53 12 -129l-4 -74q-53 -12 -103.5 -12t-99.5 6q-12 57 -12 115.5z" />
<glyph unicode="&#xf8;" horiz-adv-x="1101" d="M74 510q0 262 118.5 408.5t364.5 146.5q74 0 135 -12l74 194q84 -18 133 -51l-74 -190q203 -114 203 -476q0 -256 -115.5 -406.5t-347.5 -150.5q-74 0 -139 15l-76 -197q-74 10 -108 45l69 189q-238 113 -237 485zM262 530q0 -279 100 -368l285 766q-39 12 -90 12 q-121 0 -213 -43q-82 -158 -82 -367zM473 106q33 -8 84 -8q162 0 222.5 107.5t60.5 325t-76 319.5z" />
<glyph unicode="&#xf9;" d="M20 909l9 107q174 31 270 31t123 -5q0 -49 -12.5 -108.5t-14.5 -56.5l2 -443q0 -156 39 -227.5t166 -71.5q59 0 133 25.5t121 62.5q-8 436 -14 662q-127 0 -189 24l9 107q174 31 273 31t126 -5q0 -37 -11.5 -98t-15.5 -67l-24 -732q109 -6 176 -24l-4 -105 q-90 -29 -174 -28.5t-103 2.5q-39 78 -45 143q-100 -76 -185 -117t-112 -41q-180 0 -261 97.5t-81 285.5q0 2 19 525q-119 0 -220 26zM360 1382q2 29 24 60t62 65l287 -233q-47 -55 -82 -84q-180 86 -291 192z" />
<glyph unicode="&#xfa;" d="M20 909l9 107q174 31 270 31t123 -5q0 -49 -12.5 -108.5t-14.5 -56.5l2 -443q0 -156 39 -227.5t166 -71.5q59 0 133 25.5t121 62.5q-8 436 -14 662q-127 0 -189 24l9 107q174 31 273 31t126 -5q0 -37 -11.5 -98t-15.5 -67l-24 -732q109 -6 176 -24l-4 -105 q-90 -29 -174 -28.5t-103 2.5q-39 78 -45 143q-100 -76 -185 -117t-112 -41q-180 0 -261 97.5t-81 285.5q0 2 19 525q-119 0 -220 26zM442 1274l287 233q80 -61 86 -125q-49 -47 -121.5 -95t-169.5 -97q-37 27 -82 84z" />
<glyph unicode="&#xfb;" d="M20 909l9 107q174 31 270 31t123 -5q0 -49 -12.5 -108.5t-14.5 -56.5l2 -443q0 -156 39 -227.5t166 -71.5q59 0 133 25.5t121 62.5q-8 436 -14 662q-127 0 -189 24l9 107q174 31 273 31t126 -5q0 -37 -11.5 -98t-15.5 -67l-24 -732q109 -6 176 -24l-4 -105 q-90 -29 -174 -28.5t-103 2.5q-39 78 -45 143q-100 -76 -185 -117t-112 -41q-180 0 -261 97.5t-81 285.5q0 2 19 525q-119 0 -220 26zM299 1274l289 233l289 -233q-12 -18 -68 -74q-2 2 -31.5 15.5t-56.5 27.5q-80 43 -133 92q-72 -68 -191 -118q-29 -14 -30 -17 q-49 45 -68 74z" />
<glyph unicode="&#xfc;" d="M20 909l9 107q174 31 270 31t123 -5q0 -49 -12.5 -108.5t-14.5 -56.5l2 -443q0 -156 39 -227.5t166 -71.5q59 0 133 25.5t121 62.5q-8 436 -14 662q-127 0 -189 24l9 107q174 31 273 31t126 -5q0 -37 -11.5 -98t-15.5 -67l-24 -732q109 -6 176 -24l-4 -105 q-90 -29 -174 -28.5t-103 2.5q-39 78 -45 143q-100 -76 -185 -117t-112 -41q-180 0 -261 97.5t-81 285.5q0 2 19 525q-119 0 -220 26zM336 1312q0 38 4 87q31 6 84 6t78 -2q8 -45 8 -93.5t-2 -68.5q-41 -8 -87 -8t-75 4q-10 37 -10 75zM674 1312q0 38 4 87q31 6 84 6t78 -2 q8 -45 8 -93.5t-2 -68.5q-41 -8 -87 -8t-75 4q-10 37 -10 75z" />
<glyph unicode="&#xfd;" horiz-adv-x="1136" d="M-20 918q0 57 34 122h471l7 -71q-66 -29 -146 -45l178 -559l47 -181h21l246 740l-172 45l6 71h461q35 -66 34 -122q-84 -10 -168 -15q-53 -156 -158.5 -465t-166 -479t-119.5 -276.5t-117.5 -142.5t-130.5 -36q-127 0 -237 50l-37 18q14 233 18 256q16 6 119 6l70 -209 q18 -6 47 -6q78 0 152.5 149.5t84.5 231.5h-49l-323 901zM506 1274l287 233q80 -61 86 -125q-49 -47 -122 -95t-169 -97q-37 27 -82 84z" />
<glyph unicode="&#xfe;" horiz-adv-x="1185" d="M41 1397l8 106q104 31 303 31q63 0 90 -4q0 -51 -12 -108.5t-14 -55.5q0 -45 -4 -184.5t-4 -214.5q217 98 262 98q434 0 434 -543q0 -190 -103 -358q-51 -84 -140 -136.5t-202 -52.5q-70 0 -268 119q-4 -139 -8 -426l182 -16q0 -57 -35 -123h-471l-6 72q104 33 195 49 q-4 328 -14.5 930t-12.5 792q-113 6 -180 25zM393 231q170 -117 252 -116q127 0 203 106.5t76 290.5q-1 401 -269 401q-115 0 -249 -75q0 -4 -13 -607z" />
<glyph unicode="&#xff;" horiz-adv-x="1136" d="M-20 918q0 57 34 122h471l7 -71q-66 -29 -146 -45l178 -559l47 -181h21l246 740l-172 45l6 71h461q35 -66 34 -122q-84 -10 -168 -15q-53 -156 -158.5 -465t-166 -479t-119.5 -276.5t-117.5 -142.5t-130.5 -36q-127 0 -237 50l-37 18q14 233 18 256q16 6 119 6l70 -209 q18 -6 47 -6q78 0 152.5 149.5t84.5 231.5h-49l-323 901zM317 1312q0 38 4 87q31 6 84 6t78 -2q8 -45 8 -93.5t-2 -68.5q-41 -8 -87 -8t-75 4q-10 37 -10 75zM655 1312q0 38 4 87q31 6 84 6t78 -2q8 -45 8 -93.5t-2 -68.5q-41 -8 -87 -8t-75 4q-10 37 -10 75z" />
<glyph unicode="&#x152;" horiz-adv-x="1818" d="M41 695.5q0 363.5 145.5 553t468.5 189.5q127 0 226 -6h778q4 -27 4 -80q0 -113 -29 -244q-45 -10 -118 -10l-50 194h-419q-8 -326 -11 -493h324l16 147q57 0 123 -35v-389l-72 -6q-31 88 -41 148h-350q-4 -178 -8 -527h469l49 193l119 -11q29 -115 29 -203.5t-4 -115.5 h-824q-80 -8 -198 -8q-311 0 -469 170t-158 533.5zM246 705q0 -295 106.5 -432.5t315.5 -137.5q109 0 196 41l-20 1094q-76 29 -174.5 28.5t-176 -14.5t-139.5 -43q-12 -20 -30.5 -60t-48 -179.5t-29.5 -296.5z" />
<glyph unicode="&#x153;" horiz-adv-x="1810" d="M74 510q0 262 118.5 408.5t381 146.5t370.5 -172q125 172 387 172q190 0 287.5 -136t97.5 -364q-14 -27 -24 -37l-660 11q2 -207 73 -315.5t251 -108.5q90 0 282 86q39 -53 41 -95q-104 -61 -204.5 -96t-143.5 -35q-270 0 -395 183q-117 -184 -379 -185q-483 0 -483 537z M262 530q0 -201 53 -309q61 -123 232.5 -123t232 107.5t60.5 306.5q0 315 -140 395q-57 33 -160.5 33t-195.5 -43q-82 -158 -82 -367zM1036 645q162 2 496 10q0 136 -49 210.5t-164 74.5t-205 -43q-61 -123 -78 -252z" />
<glyph unicode="&#x178;" horiz-adv-x="1386" d="M10 1362l6 72h533q35 -66 35 -123l-185 -13l306 -620h22l305 635q-90 14 -192 49l6 72h495q35 -66 35 -123l-174 -13l-407 -786l-9 -373q92 -4 172 -16q0 -61 -32 -123h-473l-7 72q131 45 189 49q-2 127 -10 391l-430 801q-90 16 -185 49zM444.5 1705q-0.5 38 4.5 87 q31 6 84 6t77 -2q8 -45 8 -93.5t-2 -68.5q-41 -8 -87 -8t-74 4q-10 37 -10.5 75zM782.5 1705q-0.5 38 3.5 87q31 6 84.5 6t77.5 -2q8 -45 8 -93.5t-2 -68.5q-41 -8 -87 -8t-74 4q-10 37 -10.5 75z" />
<glyph unicode="&#x2c6;" horiz-adv-x="937" d="M197 1274l288 233l289 -233q-20 -29 -67 -74q-2 2 -32 15.5t-57 27.5q-80 43 -133 92q-72 -68 -190 -118q-29 -14 -31 -17q-49 45 -67 74z" />
<glyph unicode="&#x2dc;" horiz-adv-x="1308" d="M268 1286q55 76 134 123t94 47q39 0 148.5 -47t131.5 -53q117 63 172 82l35 -60q-55 -76 -158 -137q-8 -4 -22 -16q-33 -23 -47 -23q-41 14 -105 41q-141 60 -176 60q-59 -39 -172 -76z" />
<glyph unicode="&#x2000;" horiz-adv-x="1030" />
<glyph unicode="&#x2001;" horiz-adv-x="2060" />
<glyph unicode="&#x2002;" horiz-adv-x="1030" />
<glyph unicode="&#x2003;" horiz-adv-x="2060" />
<glyph unicode="&#x2004;" horiz-adv-x="686" />
<glyph unicode="&#x2005;" horiz-adv-x="515" />
<glyph unicode="&#x2006;" horiz-adv-x="343" />
<glyph unicode="&#x2007;" horiz-adv-x="343" />
<glyph unicode="&#x2008;" horiz-adv-x="257" />
<glyph unicode="&#x2009;" horiz-adv-x="412" />
<glyph unicode="&#x200a;" horiz-adv-x="114" />
<glyph unicode="&#x2010;" horiz-adv-x="669" d="M94 504l4 74q106 10 201 10l274 -10q4 -33 5 -56l-5 -71q-106 -10 -200 -11l-275 11q-4 14 -4 53z" />
<glyph unicode="&#x2011;" horiz-adv-x="669" d="M94 504l4 74q106 10 201 10l274 -10q4 -33 5 -56l-5 -71q-106 -10 -200 -11l-275 11q-4 14 -4 53z" />
<glyph unicode="&#x2012;" horiz-adv-x="669" d="M94 504l4 74q106 10 201 10l274 -10q4 -33 5 -56l-5 -71q-106 -10 -200 -11l-275 11q-4 14 -4 53z" />
<glyph unicode="&#x2013;" horiz-adv-x="1024" d="M2 586l6 82q160 14 301 14l709 -14q6 -37 6 -72l-6 -80q-160 -14 -301 -14l-709 14q-6 33 -6 70z" />
<glyph unicode="&#x2014;" horiz-adv-x="2048" d="M2 586l6 82q160 14 301 14l1733 -14q6 -37 6 -72l-6 -80q-160 -14 -301 -14l-1733 14q-6 33 -6 70z" />
<glyph unicode="&#x2018;" horiz-adv-x="460" d="M102.5 1173.5q-0.5 90.5 70.5 195t130 140.5q35 -14 66 -47q-23 -68 -127 -188q-27 -31 -31 -35q72 0 98 -4q12 -39 12.5 -106.5t-4.5 -96.5q-45 -10 -95 -10t-107 4q-12 57 -12.5 147.5z" />
<glyph unicode="&#x2019;" horiz-adv-x="460" d="M82 1069q23 68 127 188q27 31 31 35q-72 0 -99 4q-12 39 -12 106.5t4 96.5q45 10 95.5 10t107.5 -4q12 -57 12 -147t-70.5 -194.5t-130.5 -141.5q-35 14 -65 47z" />
<glyph unicode="&#x201a;" horiz-adv-x="430" d="M51 -229q23 68 129 188q25 31 29 35q-72 0 -98 4q-12 41 -12.5 107.5t3.5 95.5q45 10 95.5 10t107.5 -4q12 -57 12 -147.5t-70.5 -195t-129.5 -140.5q-35 14 -66 47z" />
<glyph unicode="&#x201c;" horiz-adv-x="806" d="M82 1173.5q0 90.5 70.5 195t130.5 140.5q35 -14 65 -47q-23 -68 -127 -188q-27 -31 -31 -35q72 0 99 -4q12 -39 12 -106.5t-4 -96.5q-45 -10 -95.5 -10t-107.5 4q-12 57 -12 147.5zM428 1173.5q0 90.5 70.5 195t130.5 140.5q35 -14 65 -47q-23 -68 -129 -188 q-25 -31 -28 -35q72 0 98 -4q12 -39 12 -106.5t-4 -96.5q-45 -10 -95.5 -10t-107.5 4q-12 57 -12 147.5z" />
<glyph unicode="&#x201d;" horiz-adv-x="806" d="M82 1069q23 68 127 188q27 31 31 35q-72 0 -99 4q-12 39 -12 106.5t4 96.5q45 10 95.5 10t107.5 -4q12 -57 12 -147t-70.5 -194.5t-130.5 -141.5q-35 14 -65 47zM428 1069q23 68 129 188q25 31 29 35q-72 0 -99 4q-12 39 -12 106.5t4 96.5q45 10 95.5 10t107.5 -4 q12 -57 12 -147t-70.5 -194.5t-129.5 -141.5q-35 14 -66 47z" />
<glyph unicode="&#x201e;" horiz-adv-x="841" d="M82 -229q23 68 127 188q27 31 31 35q-72 0 -99 4q-12 41 -12 107.5t4 95.5q45 10 95.5 10t107.5 -4q12 -57 12 -147.5t-70.5 -195t-130.5 -140.5q-35 14 -65 47zM463 -229q23 68 127 188q27 31 31 35q-72 0 -99 4q-12 39 -12 106.5t4 96.5q45 10 95.5 10t107.5 -4 q12 -57 12 -147.5t-70.5 -195t-130.5 -140.5q-35 14 -65 47z" />
<glyph unicode="&#x2022;" horiz-adv-x="835" d="M186 589q0 116 11 187q111 18 220 18.5t189 -10.5q23 -117 23 -225t-8 -180q-84 -25 -193 -25t-213 13q-29 106 -29 222z" />
<glyph unicode="&#x2026;" horiz-adv-x="1521" d="M125 113.5q0 58.5 4 87.5q45 10 95 10t108 -4q12 -53 12 -103.5t-4 -99.5q-53 -12 -103.5 -12t-99.5 6q-12 57 -12 115.5zM582 113.5q0 58.5 4 87.5q45 10 95 10t107 -4q12 -53 12.5 -103.5t-3.5 -99.5q-53 -12 -103.5 -12t-99.5 6q-12 57 -12 115.5zM1036.5 113.5 q-0.5 58.5 3.5 87.5q45 10 95.5 10t107.5 -4q12 -53 12 -103.5t-4 -99.5q-53 -12 -103 -12t-99 6q-12 57 -12.5 115.5z" />
<glyph unicode="&#x202f;" horiz-adv-x="412" />
<glyph unicode="&#x2039;" horiz-adv-x="602" d="M102 529.5q0 19.5 2 25.5q127 176 166 220t90 97q29 -8 99 -69q-162 -238 -195 -275q23 -27 55 -69l140 -205q-57 -66 -99 -70q-96 94 -161 187l-93 133q-4 6 -4 25.5z" />
<glyph unicode="&#x203a;" horiz-adv-x="602" d="M143 254q162 238 195 274q-23 25 -55 70l-140 205q57 66 99 69q96 -94 161 -186l93 -133q4 -6 4 -25.5t-2 -25.5q-127 -176 -166 -221t-90 -97q-29 8 -99 70z" />
<glyph unicode="&#x205f;" horiz-adv-x="515" />
<glyph unicode="&#x20ac;" horiz-adv-x="1298" d="M31 545l6 65q84 16 178 23q-2 31 -2 96v41l-176 6q-6 27 -6 55l6 66q90 16 186 23q61 541 522 540q127 0 189.5 -22.5t93.5 -40.5q39 -23 94 -74q0 -115 -28 -291q-45 -6 -119 -6l-62 272q-90 20 -166.5 20.5t-138 -14t-84.5 -30.5l-24 -14q-57 -135 -80 -340l395 -13 q4 -20 4 -59l-4 -62q-131 -25 -233.5 -24.5t-169.5 2.5v-10q0 -82 2 -121l401 -12q4 -20 4 -60l-4 -61q-131 -25 -228.5 -25t-158.5 2q27 -172 96.5 -262t218 -90t209.5 33l43 245l119 -6q31 -211 31 -342q-39 -31 -150.5 -56.5t-261.5 -25.5q-217 0 -344 121t-162 389 l-190 6q-6 27 -6 56z" />
<glyph unicode="&#x2122;" horiz-adv-x="1654" d="M82 1323q0 49 2 57h561q2 -12 2 -43l-14 -192q-20 -2 -72 -2l-26 133h-101q-4 -250 -8 -379l137 -18q0 -57 -18 -95h-361l-4 70q109 29 146 33l-27 389h-98l-25 -133l-59 2q-35 129 -35 178zM657 854q109 29 146 33l65 403q-63 12 -82 17l2 75h252l97 -364h20l84 364h238 q12 -59 12 -94q-53 -4 -80 -4l76 -387l137 -18q0 -57 -18 -95h-361l-4 70q98 29 135 41l-76 360l-106 -368h-86l-133 366l-53 -358l118 -16q0 -57 -18 -95h-360z" />
<glyph unicode="&#x25fc;" horiz-adv-x="1044" d="M0 0v1044h1044v-1044h-1044z" />
<glyph unicode="&#xfb01;" horiz-adv-x="1251" d="M41 70q94 33 184 51q0 250 -12 778h-158l-6 72q74 29 164 45v84q0 166 86 289q100 145 358 145q96 0 200 -27.5t153 -58.5q0 -131 -19 -256q-41 -8 -73 -8h-39q-8 0 -21 2l-61 207q-100 18 -135 18q-102 0 -185.5 -85t-83.5 -263v-41q6 0 629 18q25 0 63 -39 q-12 -72 -28 -124q-2 -82 -6 -234q-8 -330 -13 -504l172 -16q0 -57 -34 -123h-471l-7 72q94 33 185 49q-12 516 -21 764l-469 18q-12 -758 -12 -766l172 -16q0 -57 -35 -123h-471z" />
<glyph unicode="&#xfb02;" horiz-adv-x="1251" d="M41 72q94 33 184 49q-12 774 -12 778h-158l-6 72q74 29 164 45v84q0 166 114.5 300t319.5 134q270 0 363 -12q27 0 71 -45q-18 -135 -24 -129l-19 -1209l172 -16q0 -57 -34 -123h-471l-7 72q94 33 185 49q-2 236 -10.5 668t-10.5 571q-90 53 -195.5 53t-189.5 -85 t-84 -265v-25l27 2q117 0 229 -20q-2 -59 -35 -121h-221q-12 -516 -12 -760q70 0 151.5 -8t85.5 -12q0 -53 -34 -119h-537z" />
</font>
</defs>
</svg>
